<svg width="25" height="25" viewBox="0 0 25 25" fill="none" xmlns="http://www.w3.org/2000/svg">
<path d="M12.3887 0.777588C19.0055 0.777588 24.3887 6.16079 24.3887 12.7776C24.3887 19.3944 19.0055 24.7776 12.3887 24.7776C5.77187 24.7776 0.388672 19.3944 0.388672 12.7776C0.388672 6.16079 5.77187 0.777588 12.3887 0.777588ZM12.3887 22.3776C17.6819 22.3776 21.9887 18.0708 21.9887 12.7776C21.9887 7.48439 17.6819 3.17759 12.3887 3.17759C7.09547 3.17759 2.78867 7.48439 2.78867 12.7776C2.78867 18.0708 7.09547 22.3776 12.3887 22.3776Z" fill="white"/>
<path d="M12.3898 6.77759C13.0534 6.77759 13.5898 7.31519 13.5898 7.97759V13.9776C13.5898 14.64 13.0534 15.1776 12.3898 15.1776C11.7262 15.1776 11.1898 14.64 11.1898 13.9776V7.97759C11.1898 7.31519 11.7262 6.77759 12.3898 6.77759Z" fill="white"/>
<path d="M12.3898 16.3774C12.7018 16.3774 13.0138 16.5094 13.2418 16.7254C13.459 16.9534 13.5898 17.2654 13.5898 17.5774C13.5898 17.8894 13.459 18.2014 13.2418 18.4294C12.7858 18.8734 11.9938 18.8734 11.5378 18.4294C11.3218 18.2014 11.1898 17.8894 11.1898 17.5774C11.1898 17.2654 11.3218 16.9534 11.5378 16.7254C11.7658 16.5094 12.0778 16.3774 12.3898 16.3774Z" fill="white"/>
</svg>
