<svg width="47" height="47" viewBox="0 0 47 47" fill="none" xmlns="http://www.w3.org/2000/svg">
<g id="pura 1">
<path id="Vector" d="M41.9558 37.6721H41.6688V36.9888C41.6681 36.4171 41.4408 35.8691 41.0365 35.4648C40.6323 35.0606 40.0842 34.8332 39.5125 34.8326H38.1192V30.4611H38.1645C38.2924 30.4611 38.418 30.4269 38.5283 30.3621C38.6386 30.2974 38.7296 30.2043 38.792 30.0926L40.1867 27.5942C40.3088 27.3754 40.3717 27.1285 40.369 26.878C40.3663 26.6275 40.2981 26.382 40.1713 26.1659C40.0445 25.9498 39.8633 25.7706 39.6459 25.6462C39.4284 25.5217 39.1822 25.4562 38.9317 25.4562H33.0989V24.1205H33.8787C34.1078 24.1204 34.3336 24.0655 34.5373 23.9606C34.7409 23.8556 34.9165 23.7034 35.0495 23.5168L36.5667 21.3873C36.7198 21.1723 36.8108 20.9193 36.8296 20.656C36.8485 20.3927 36.7945 20.1293 36.6736 19.8947C36.5526 19.6601 36.3694 19.4633 36.1441 19.3259C35.9187 19.1886 35.6598 19.1159 35.3959 19.1159H33.0989V16.605C33.1397 16.5645 33.1754 16.5192 33.2053 16.4701L34.6786 13.9948C34.8084 13.7766 34.878 13.5279 34.8805 13.274C34.883 13.0201 34.8182 12.77 34.6927 12.5493C34.5672 12.3286 34.3854 12.1451 34.166 12.0174C33.9465 11.8897 33.6971 11.8224 33.4432 11.8224H30.9546V9.5148C31.2038 9.50112 31.445 9.42218 31.6541 9.28588C31.8631 9.14958 32.0327 8.96072 32.1457 8.73823L33.2218 6.6083C33.3325 6.38916 33.3852 6.14531 33.3749 5.90001C33.3646 5.65471 33.2916 5.41613 33.163 5.20703C33.0343 4.99793 32.8542 4.82527 32.6399 4.70551C32.4256 4.58576 32.1841 4.52291 31.9386 4.52295H26.8337C26.643 4.52295 26.4602 4.59867 26.3254 4.73347C26.1906 4.86826 26.1149 5.05107 26.1149 5.2417V34.8326H21.8593V5.2417C21.8593 5.05107 21.7835 4.86826 21.6488 4.73347C21.514 4.59867 21.3311 4.52295 21.1405 4.52295H16.0356C15.79 4.52292 15.5486 4.58578 15.3343 4.70554C15.12 4.82529 14.9399 4.99795 14.8112 5.20706C14.6826 5.41616 14.6096 5.65473 14.5994 5.90002C14.5891 6.14532 14.6418 6.38916 14.7525 6.6083L15.8285 8.73823C15.9416 8.96072 16.1111 9.14958 16.3202 9.28588C16.5292 9.42218 16.7704 9.50112 17.0196 9.5148V11.8224H14.531C14.2771 11.8225 14.0277 11.8898 13.8082 12.0175C13.5887 12.1452 13.407 12.3288 13.2815 12.5495C13.156 12.7703 13.0912 13.0203 13.0937 13.2742C13.0962 13.5282 13.1659 13.7769 13.2957 13.9951L14.769 16.4701C14.7989 16.5192 14.8346 16.5645 14.8753 16.605V19.1159H12.5784C12.3144 19.1159 12.0556 19.1886 11.8302 19.3259C11.6048 19.4633 11.4216 19.6601 11.3007 19.8947C11.1798 20.1293 11.1258 20.3927 11.1446 20.656C11.1635 20.9193 11.2545 21.1723 11.4076 21.3873L12.9244 23.5165C13.0574 23.7031 13.2331 23.8553 13.4368 23.9604C13.6405 24.0655 13.8663 24.1203 14.0955 24.1205H14.8754V25.4562H9.0425C8.79194 25.4562 8.54573 25.5217 8.32829 25.6461C8.11084 25.7706 7.92972 25.9498 7.80288 26.1659C7.67605 26.382 7.6079 26.6275 7.6052 26.878C7.6025 27.1285 7.66534 27.3754 7.78749 27.5942L9.18218 30.0926C9.24453 30.2043 9.33555 30.2973 9.44585 30.3621C9.55615 30.4269 9.68173 30.4611 9.80965 30.4611H9.85457V34.8326H8.46163C7.88995 34.8332 7.34186 35.0606 6.93762 35.4648C6.53338 35.869 6.30601 36.4171 6.30538 36.9888V37.6721H6.01834C5.44666 37.6727 4.89857 37.9001 4.49433 38.3044C4.09009 38.7086 3.86272 39.2567 3.86209 39.8284C3.86275 40.3908 4.08648 40.93 4.4842 41.3278C4.88191 41.7255 5.42114 41.9492 5.9836 41.9499H41.9906C42.553 41.9492 43.0923 41.7255 43.49 41.3278C43.8877 40.9301 44.1114 40.3908 44.1121 39.8284C44.1115 39.2567 43.8841 38.7086 43.4799 38.3044C43.0756 37.9001 42.5275 37.6728 41.9558 37.6721ZM36.6817 34.8326H33.1006V30.4611H36.6817V34.8326ZM38.9317 26.8937L37.7427 29.0236H37.4074L37.4005 29.0222H33.0989V26.8937H38.9317ZM31.6614 34.8326H27.5524V24.1205H31.6614V34.8326ZM33.8787 22.683H27.5524V20.5534H35.3958L33.8787 22.683ZM27.5524 19.1159V16.821H31.6614V19.1159L27.5524 19.1159ZM32.179 15.3835H27.5524V13.2599H30.2358L30.2367 13.2597L33.4431 13.2596L32.179 15.3835ZM27.5524 11.8224V9.52753H29.517V11.8224L27.5524 11.8224ZM30.8626 8.09004H27.5524V5.96045H31.9386L30.8626 8.09004ZM16.0356 5.96045H20.4218V8.09003H17.7384L17.7369 8.09034L17.1116 8.09038L16.0356 5.96045ZM18.4571 9.52753H20.4218V11.8224H18.4571V9.52753ZM14.531 13.2599H20.4218V15.3835H15.7952L14.531 13.2599ZM16.3128 16.821H20.4218V19.1159H16.3128V16.821ZM12.5784 20.5534H20.4218V22.683H14.0955L12.5784 20.5534ZM20.4218 24.1205V34.8326H16.3128V24.1205H20.4218ZM9.04252 26.8937H14.8753V29.0222H10.5733L10.5664 29.0236H10.2315L9.04252 26.8937ZM11.2921 30.4611H14.8732V34.8326H11.2921L11.2921 30.4611ZM7.74293 36.9888C7.74318 36.7983 7.81898 36.6156 7.95372 36.4809C8.08846 36.3461 8.27113 36.2703 8.46168 36.2701H10.5699L10.5734 36.2708H15.592L15.5954 36.2701H32.3784L32.3819 36.2708H37.4005L37.4039 36.2701H39.5125C39.7031 36.2703 39.8857 36.3461 40.0205 36.4809C40.1552 36.6156 40.231 36.7983 40.2313 36.9888V37.6721H7.74292L7.74293 36.9888ZM41.9906 40.5124H5.9836C5.80224 40.5122 5.62836 40.4401 5.50012 40.3119C5.37188 40.1836 5.29976 40.0097 5.29959 39.8284C5.29984 39.6378 5.37564 39.4552 5.51038 39.3204C5.64512 39.1857 5.82779 39.1099 6.01834 39.1096H7.0207L7.02417 39.1103H40.95L40.9535 39.1096H41.9558C42.1464 39.1099 42.3291 39.1857 42.4638 39.3204C42.5985 39.4552 42.6743 39.6378 42.6746 39.8284C42.6744 40.0097 42.6023 40.1836 42.4741 40.3119C42.3458 40.4401 42.172 40.5122 41.9906 40.5124Z" fill="white"/>
</g>
</svg>
