<svg width="34" height="33" viewBox="0 0 34 33" fill="none" xmlns="http://www.w3.org/2000/svg">
<g clip-path="url(#clip0_388_18764)">
<path d="M33.0774 12.0716V10.6625C33.0754 10.5189 33.0058 10.3559 32.8502 10.2635L18.0133 1.2947C17.2405 0.827547 16.2803 0.827547 15.5076 1.2947L0.67058 10.2635C0.546992 10.3406 0.441951 10.4841 0.443417 10.6625V12.0716C0.434558 13.1739 1.44366 14.0651 2.57635 13.9494C2.43562 14.2033 2.35557 14.4941 2.35557 14.803C2.35557 15.8184 3.22999 16.6432 4.26771 16.594V22.4722C4.26771 22.7311 4.48175 22.9409 4.74575 22.9409C5.00975 22.9409 5.22379 22.7311 5.22379 22.4722V16.594H8.10801V27.4835H5.22379V24.6596C5.22379 24.4007 5.00975 24.1909 4.74575 24.1909C4.48175 24.1909 4.26771 24.4007 4.26771 24.6596V27.4835C3.23439 27.4515 2.35557 28.2447 2.35557 29.2745C2.35557 29.5834 2.43562 29.8742 2.57635 30.1281H1.55884C0.943826 30.1281 0.443417 30.6193 0.443417 31.2231V31.8494C0.443417 32.4531 0.943826 32.9444 1.55884 32.9444H31.962C32.577 32.9444 33.0774 32.4531 33.0774 31.8494V31.2231C33.0774 30.6193 32.577 30.1281 31.962 30.1281H30.9445C31.0852 29.8742 31.1653 29.5834 31.1653 29.2745C31.1653 28.2507 30.2905 27.4401 29.2531 27.4835V16.594C30.2801 16.6258 31.1653 15.8335 31.1653 14.803C31.1653 14.4942 31.0852 14.2033 30.9445 13.9495C32.0514 14.0158 33.0858 13.2209 33.0774 12.0716ZM4.17937 15.6566C3.70089 15.6566 3.31164 15.2737 3.31164 14.803C3.31164 14.3324 3.70089 13.9495 4.17937 13.9495H9.15249C9.63097 13.9495 10.0202 14.3324 10.0202 14.803C10.0202 15.2737 9.63097 15.6566 9.15249 15.6566H4.17937ZM10.7555 13.9495H12.6709C12.5302 14.2034 12.4501 14.4942 12.4501 14.803C12.4501 15.8185 13.3245 16.6432 14.3623 16.594V27.4836C13.3292 27.4518 12.4501 28.2445 12.4501 29.2746C12.4501 29.5834 12.5302 29.8742 12.6709 30.1282H10.7555C10.8962 29.8743 10.9763 29.5834 10.9763 29.2746C10.9763 28.2508 10.1015 27.4401 9.06415 27.4836V16.594C10.0916 16.6258 10.9763 15.8335 10.9763 14.803C10.9763 14.4942 10.8962 14.2033 10.7555 13.9495ZM20.85 13.9495H22.7654C22.6247 14.2034 22.5446 14.4942 22.5446 14.803C22.5446 15.8185 23.419 16.6432 24.4567 16.594V27.4836C23.4239 27.4522 22.5446 28.2443 22.5446 29.2746C22.5446 29.5834 22.6247 29.8742 22.7654 30.1282H20.85C20.9907 29.8743 21.0708 29.5834 21.0708 29.2746C21.0708 28.2508 20.196 27.4401 19.1586 27.4836V16.594C20.1858 16.6258 21.0708 15.8335 21.0708 14.803C21.0708 14.4942 20.9907 14.2033 20.85 13.9495ZM19.247 28.421C19.7255 28.421 20.1147 28.8039 20.1147 29.2745C20.1147 29.7452 19.7255 30.1281 19.247 30.1281H14.2739C13.7955 30.1281 13.4063 29.7452 13.4063 29.2745C13.4063 28.8039 13.7955 28.421 14.2739 28.421H19.247ZM15.3183 27.4835V16.594H18.2026V27.4836H15.3183V27.4835ZM19.247 15.6566H14.2739C13.7955 15.6566 13.4063 15.2737 13.4063 14.803C13.4063 14.3324 13.7955 13.9495 14.2739 13.9495H19.247C19.7255 13.9495 20.1147 14.3324 20.1147 14.803C20.1147 15.2737 19.7255 15.6566 19.247 15.6566ZM4.17937 28.421H9.15249C9.63097 28.421 10.0202 28.8039 10.0202 29.2745C10.0202 29.7452 9.63097 30.1281 9.15249 30.1281H4.17937C3.70089 30.1281 3.31164 29.7452 3.31164 29.2745C3.31164 28.8039 3.70089 28.421 4.17937 28.421ZM31.962 31.0655C32.0498 31.0655 32.1213 31.1362 32.1213 31.2231V31.8494C32.1213 31.9362 32.0498 32.0069 31.962 32.0069H1.55884C1.47101 32.0069 1.39949 31.9362 1.39949 31.8494V31.2231C1.39949 31.1362 1.47101 31.0655 1.55884 31.0655H31.962ZM29.3415 28.421C29.82 28.421 30.2093 28.8039 30.2093 29.2745C30.2093 29.7452 29.82 30.1281 29.3415 30.1281H24.3684C23.8899 30.1281 23.5007 29.7452 23.5007 29.2745C23.5007 28.8039 23.8899 28.421 24.3684 28.421H29.3415ZM25.4128 27.4835V16.594H28.297V27.4836H25.4128V27.4835ZM29.3415 15.6566H24.3684C23.8899 15.6566 23.5007 15.2737 23.5007 14.803C23.5007 14.3324 23.8899 13.9495 24.3684 13.9495H29.3415C29.82 13.9495 30.2093 14.3324 30.2093 14.803C30.2092 15.2737 29.8199 15.6566 29.3415 15.6566ZM2.35557 13.012C1.82839 13.012 1.39949 12.5902 1.39949 12.0716V11.1312H23.4854C23.7494 11.1312 23.9635 10.9213 23.9635 10.6625C23.9635 10.4036 23.7494 10.1938 23.4854 10.1938H2.60778L16.0094 2.09272C16.4727 1.81267 17.0483 1.81267 17.5115 2.09272L30.913 10.1938H25.7163C25.4523 10.1938 25.2382 10.4036 25.2382 10.6625C25.2382 10.9213 25.4523 11.1312 25.7163 11.1312H32.1213V12.0716C32.1213 12.5901 31.6924 13.0119 31.1653 13.0119H2.35557V13.012ZM16.3171 4.84973H17.8688C18.1328 4.84973 18.3469 4.63986 18.3469 4.38101C18.3469 4.12215 18.1328 3.91229 17.8688 3.91229H17.2385V3.56218C17.2385 3.30332 17.0244 3.09346 16.7604 3.09346C16.4964 3.09346 16.2824 3.30332 16.2824 3.56218V3.9141C15.6682 3.93366 15.174 4.46462 15.174 5.11608V5.60611C15.174 5.91722 15.2859 6.21233 15.4892 6.43694C15.7036 6.67398 16.0054 6.80997 16.3171 6.80991H17.2037C17.2922 6.80991 17.3907 6.91928 17.3907 7.07633V7.56643C17.3907 7.72342 17.2922 7.83285 17.2037 7.83285H15.6519C15.3879 7.83285 15.1739 8.04271 15.1739 8.30157C15.1739 8.56042 15.3879 8.77029 15.6519 8.77029H16.2823V9.12039C16.2823 9.37925 16.4963 9.58911 16.7604 9.58911C17.0244 9.58911 17.2384 9.37925 17.2384 9.12039V8.76847C17.8526 8.74891 18.3468 8.21795 18.3468 7.56649V7.07639C18.3468 6.41256 17.834 5.87253 17.2036 5.87253H16.317C16.1861 5.86885 16.1312 5.71673 16.13 5.60611V5.11608C16.1301 4.95909 16.2286 4.84973 16.3171 4.84973Z" fill="#2A3F85"/>
</g>
<defs>
<clipPath id="clip0_388_18764">
<rect width="32.6361" height="32" fill="white" transform="translate(0.442383 0.944336)"/>
</clipPath>
</defs>
</svg>
