<svg width="107" height="100" viewBox="0 0 107 100" fill="none" xmlns="http://www.w3.org/2000/svg">
<g id="Group 57">
<path id="Ellipse 34" d="M105.358 49.96C105.358 76.2696 82.3919 97.7834 53.8247 97.7834C25.2575 97.7834 2.29157 76.2696 2.29157 49.96C2.29157 23.6503 25.2575 2.13654 53.8247 2.13654C82.3919 2.13654 105.358 23.6503 105.358 49.96Z" fill="white" stroke="white" stroke-width="3.05774"/>
<path id="Vector" d="M67.5854 41.0897C67.9545 41.433 68.5511 41.433 68.9202 41.0897L72.696 37.5779C73.0651 37.2346 73.0651 36.6798 72.696 36.3365L68.9202 32.8247C68.5511 32.4814 67.9545 32.4814 67.5854 32.8247C67.2164 33.168 67.2164 33.7228 67.5854 34.0661L69.7499 36.0793H58.7482C58.281 32.6201 55.1055 29.9336 51.2618 29.9336C47.418 29.9336 44.2426 32.6201 43.7753 36.0793H32.7736L34.9381 34.0661C35.3072 33.7228 35.3072 33.168 34.9381 32.8247C34.569 32.4814 33.9725 32.4814 33.6034 32.8247L29.8276 36.3365C29.4585 36.6798 29.4585 37.2346 29.8276 37.5779L33.6034 41.0897C33.9725 41.433 34.569 41.433 34.9381 41.0897C35.3072 40.7465 35.3072 40.1916 34.9381 39.8483L32.7736 37.8352H43.7791C44.0765 39.9897 45.4537 41.9124 47.486 43.0124V46.9501L43.9103 48.6138C42.6228 49.2117 41.8223 50.4153 41.8223 51.7542V59.5232C41.8223 60.1334 41.9951 60.7365 42.3198 61.2651L47.6097 69.8769C47.7786 70.1508 48.0911 70.3194 48.4299 70.3194H66.3649C66.751 70.3194 67.0974 70.1008 67.2418 69.7672L69.8717 63.6531C70.0501 63.237 70.1407 62.798 70.1407 62.3493V49.2485C70.1407 47.3118 68.4473 45.7367 66.3649 45.7367H55.0376V43.0124C57.0699 41.9124 58.4471 39.9897 58.7444 37.8352H69.7499L67.5854 39.8483C67.2173 40.1916 67.2173 40.7465 67.5854 41.0897ZM66.3649 47.4926C67.4061 47.4926 68.2528 48.2802 68.2528 49.2485V62.3493C68.2528 62.5741 68.2075 62.7936 68.1178 63.0017L65.7259 68.5635H48.9784L43.9594 60.3933C43.7961 60.1299 43.7102 59.8287 43.7102 59.5232V51.7542C43.7102 51.0843 44.1104 50.4829 44.7542 50.1836L47.486 48.9132V54.5163C47.486 55.0018 47.9089 55.3942 48.4299 55.3942C48.951 55.3942 49.3739 55.0018 49.3739 54.5163V36.9572C49.3739 35.9888 50.2206 35.2013 51.2618 35.2013C52.303 35.2013 53.1497 35.9888 53.1497 36.9572V46.6147C53.1497 47.1002 53.5726 47.4926 54.0936 47.4926H66.3649ZM55.0376 40.8711V36.9572C55.0376 35.0204 53.3441 33.4454 51.2618 33.4454C49.1794 33.4454 47.486 35.0204 47.486 36.9572V40.8711C46.3079 39.8852 45.5981 38.4638 45.5981 36.9572C45.5981 34.0521 48.1383 31.6895 51.2618 31.6895C54.3853 31.6895 56.9255 34.0521 56.9255 36.9572C56.9255 38.4638 56.2156 39.8852 55.0376 40.8711Z" fill="#2A3F85"/>
</g>
</svg>
