<svg width="67" height="67" viewBox="0 0 67 67" fill="none" xmlns="http://www.w3.org/2000/svg">
<g id="building 1" clip-path="url(#clip0_15_145)">
<g id="burj al arab">
<path id="Vector" d="M65.8078 64.7009H59.4003L58.0253 61.1603C57.6194 60.1138 56.9079 59.2138 55.9833 58.5774C55.0588 57.941 53.964 57.5977 52.8416 57.5922C53.0775 56.9605 53.1531 56.2802 53.0616 55.6122C53.0624 55.0094 52.8318 54.4294 52.4172 53.9919C52.0027 53.5543 51.436 53.2927 50.8341 53.2609V49.0878C51.436 49.0561 52.0027 48.7944 52.4172 48.3569C52.8318 47.9193 53.0624 47.3393 53.0616 46.7366V45.7397C53.0599 45.425 52.9953 45.1138 52.8718 44.8244C52.7483 44.5349 52.5683 44.273 52.3422 44.0541C52.1162 43.8351 51.8488 43.6634 51.5556 43.5491C51.2624 43.4348 50.9493 43.3802 50.6347 43.3884C50.5056 41.9688 50.299 40.5574 50.016 39.1603C50.5368 39.0445 51.0025 38.7546 51.3362 38.3383C51.67 37.9221 51.8518 37.4044 51.8516 36.8709V35.8603C51.8498 35.2354 51.6007 34.6367 51.1589 34.1949C50.7171 33.753 50.1183 33.504 49.4935 33.5022H48.476C47.9479 31.9865 47.3304 30.5035 46.6266 29.0609C47.0038 28.8637 47.3201 28.5676 47.5418 28.2042C47.7634 27.8409 47.882 27.424 47.8847 26.9984V25.9878C47.8829 25.3629 47.6339 24.7642 47.192 24.3224C46.7502 23.8805 46.1514 23.6315 45.5266 23.6297H43.4641C37.838 15.4274 29.4724 9.49933 19.8691 6.90968V0.763428C19.8691 0.581091 19.7966 0.406223 19.6677 0.277292C19.5388 0.148361 19.3639 0.0759277 19.1816 0.0759277C18.9992 0.0759277 18.8244 0.148361 18.6954 0.277292C18.5665 0.406223 18.4941 0.581091 18.4941 0.763428V27.0191H15.861C15.6786 27.0191 15.5038 27.0915 15.3748 27.2204C15.2459 27.3493 15.1735 27.5242 15.1735 27.7066C15.1735 27.8889 15.2459 28.0638 15.3748 28.1927C15.5038 28.3216 15.6786 28.3941 15.861 28.3941H18.4735V57.5922H16.5485C15.4188 57.5884 14.3146 57.9275 13.3817 58.5645C12.4488 59.2016 11.7311 60.1067 11.3235 61.1603L9.94846 64.7009H1.69846C1.51612 64.7009 1.34125 64.7734 1.21232 64.9023C1.08339 65.0312 1.01096 65.2061 1.01096 65.3884C1.01096 65.5708 1.08339 65.7456 1.21232 65.8746C1.34125 66.0035 1.51612 66.0759 1.69846 66.0759H65.8422C66.0245 66.0759 66.1994 66.0035 66.3283 65.8746C66.4573 65.7456 66.5297 65.5708 66.5297 65.3884C66.5297 65.2061 66.4573 65.0312 66.3283 64.9023C66.1994 64.7734 66.0245 64.7009 65.8422 64.7009H65.8078ZM51.6797 55.6122V56.6091C51.6785 56.8463 51.5915 57.0751 51.4348 57.2533C51.2782 57.4314 51.0624 57.5469 50.8272 57.5784C50.7585 57.5784 51.1778 57.5784 43.8766 57.5784V54.6291H50.6966C50.9568 54.6309 51.2058 54.735 51.3898 54.919C51.5737 55.103 51.6779 55.352 51.6797 55.6122ZM43.8766 49.0947H49.4522V53.2197H43.8766V49.0947ZM50.6966 44.7634C50.9568 44.7652 51.2058 44.8694 51.3898 45.0534C51.5737 45.2374 51.6779 45.4864 51.6797 45.7466V46.7434C51.6779 47.0036 51.5737 47.2526 51.3898 47.4366C51.2058 47.6206 50.9568 47.7248 50.6966 47.7266H43.8766V44.7634H50.6966ZM43.691 43.3884C43.5741 42.0134 43.3816 40.5972 43.1272 39.2222H48.6272C48.9082 40.5994 49.1193 41.9899 49.2597 43.3884H43.691ZM49.4935 34.8841C49.7542 34.8841 50.0043 34.9876 50.1886 35.172C50.373 35.3564 50.4766 35.6064 50.4766 35.8672V36.8709C50.4764 37.0885 50.4032 37.2996 50.2685 37.4705C50.1338 37.6413 49.9456 37.7619 49.7341 37.8128C49.5966 37.8609 50.1535 37.8128 42.8591 37.8128C42.6528 36.8159 42.4053 35.8259 42.1303 34.8497L49.4935 34.8841ZM47.0116 33.5091H41.7178C41.2704 32.1085 40.7518 30.7317 40.1641 29.3841H45.231C45.903 30.7215 46.4976 32.0964 47.0116 33.5022V33.5091ZM45.5266 25.0047C45.6557 25.0047 45.7835 25.0301 45.9028 25.0795C46.0221 25.1289 46.1305 25.2013 46.2218 25.2926C46.313 25.3839 46.3855 25.4923 46.4349 25.6116C46.4843 25.7309 46.5097 25.8587 46.5097 25.9878V26.9847C46.5095 27.1578 46.4637 27.3278 46.3768 27.4775C46.2899 27.6271 46.165 27.7512 46.0147 27.8372C45.6847 28.0228 46.0147 27.9678 39.5522 27.9678C39.0939 26.9641 38.5897 25.9763 38.0397 25.0047H45.5266ZM41.7797 23.6297H37.2353C33.9871 18.2456 29.6646 13.5884 24.5372 9.94843C31.4377 12.8293 37.4057 17.5647 41.7797 23.6297ZM19.8691 8.60093C27.8785 13.1384 34.1828 20.1234 37.5516 27.0191H33.4747C31.1512 22.9548 28.1467 19.3201 24.5922 16.2734C24.4923 16.188 24.3701 16.133 24.2399 16.1149C24.1097 16.0968 23.9771 16.1165 23.8577 16.1714C23.7383 16.2264 23.6372 16.3145 23.5664 16.4251C23.4955 16.5358 23.4578 16.6645 23.4578 16.7959V27.0191H19.8691V8.60093ZM24.8328 39.2978H35.3516L24.8328 48.0497V39.2978ZM24.8328 37.9228V29.1709C30.7178 34.0728 33.7703 36.6166 35.3378 37.9228H24.8328ZM25.8022 27.0191L29.4253 23.3959C30.3125 24.5569 31.1342 25.7665 31.8866 27.0191H25.8022ZM24.8328 26.0428V18.3291C26.1685 19.5669 27.4181 20.8946 28.5728 22.3028L24.8328 26.0428ZM24.8328 50.9234C28.1328 53.4809 35.6885 59.3522 36.2041 59.7441H24.8328V50.9234ZM37.5447 59.0291C36.761 58.4378 40.446 61.2634 26.1735 50.2084H37.5447V59.0291ZM26.0566 48.8334C27.6653 47.5065 30.766 44.9078 36.8091 39.8959C37.3738 42.8401 37.6204 45.8365 37.5447 48.8334H26.0566ZM26.0566 28.3941H32.6841C34.1363 31.0325 35.2761 33.8311 36.0803 36.7334L26.0566 28.3941ZM12.5885 61.6622C12.8961 60.8635 13.44 60.1777 14.1475 59.6961C14.8551 59.2146 15.6926 58.9603 16.5485 58.9672H18.5078V64.7009H11.3991L12.5885 61.6622ZM19.8691 64.7009V28.3941H23.4578V60.4178C23.4578 60.6001 23.5303 60.775 23.6592 60.9039C23.7881 61.0329 23.963 61.1053 24.1453 61.1053C37.9297 61.1053 38.5828 61.1741 38.6585 60.9541C38.679 60.9466 38.6961 60.932 38.7066 60.9128C38.8156 60.7892 38.8766 60.6307 38.8785 60.4659C38.8785 46.8465 39.126 44.1172 37.8953 38.5622C37.8953 38.4866 37.8953 38.4934 37.8953 38.4659C37.1267 34.9893 35.8942 31.6317 34.231 28.4834H38.2322C41.0307 34.4379 42.4881 40.9341 42.5016 47.5134V64.7009H19.8691ZM43.8766 64.7009V58.9672H49.4522V64.7009H43.8766ZM50.8272 64.7009V58.9672H52.7866C53.6401 58.9631 54.4746 59.2187 55.1794 59.7001C55.8843 60.1814 56.426 60.8657 56.7328 61.6622L57.9291 64.7009H50.8272Z" fill="url(#paint0_linear_15_145)"/>
</g>
</g>
<defs>
<linearGradient id="paint0_linear_15_145" x1="56.0817" y1="20.0539" x2="21.834" y2="45.4226" gradientUnits="userSpaceOnUse">
<stop stop-color="white"/>
<stop offset="1" stop-color="#A6BBFF"/>
</linearGradient>
<clipPath id="clip0_15_145">
<rect width="66" height="66" fill="white" transform="translate(0.735962 0.0759277)"/>
</clipPath>
</defs>
</svg>
