<svg width="35" height="35" viewBox="0 0 35 35" fill="none" xmlns="http://www.w3.org/2000/svg">
<g clip-path="url(#clip0_89_326)">
<path d="M34.3263 14.4138L30.8165 14.0242C30.5643 13.197 30.2322 12.3964 29.8249 11.6336L32.0306 8.87671C32.2558 8.59494 32.2332 8.189 31.9783 7.93394L27.9705 3.93043C27.7154 3.67549 27.3095 3.65292 27.0277 3.87803L24.2708 6.08306C23.508 5.67572 22.7073 5.34356 21.8802 5.09141L21.4906 1.58163C21.4509 1.22271 21.1476 0.951172 20.7865 0.951172H15.1199C14.7588 0.951172 14.4555 1.22271 14.4158 1.58157L14.0262 5.08782C13.199 5.34004 12.3983 5.67213 11.6355 6.07947L8.87866 3.87372C8.5969 3.6486 8.19096 3.67118 7.93589 3.92611L3.92813 7.93394C3.6734 8.1892 3.65115 8.59514 3.8764 8.87671L6.08501 11.6336C5.67767 12.3964 5.34551 13.197 5.09336 14.0242L1.58359 14.4138C1.22466 14.4535 0.953125 14.7568 0.953125 15.1178V20.7845C0.953125 21.1456 1.22466 21.4489 1.58352 21.4886L5.08978 21.8782C5.34199 22.7054 5.67409 23.506 6.08142 24.2688L3.87567 27.0257C3.65055 27.3075 3.67313 27.7134 3.92806 27.9685L7.93582 31.9762C8.19202 32.2299 8.59789 32.2506 8.87859 32.0244L11.6355 29.8194C12.3983 30.2267 13.1989 30.5589 14.0261 30.811L14.4157 34.3208C14.4554 34.6796 14.7587 34.9512 15.1198 34.9512H20.7865C21.1463 34.9514 21.4491 34.6818 21.4906 34.3243L21.8802 30.8145C22.7073 30.5623 23.508 30.2302 24.2708 29.8229L27.0277 32.0286C27.3094 32.2537 27.7154 32.2312 27.9704 31.9762L31.9739 27.9685C32.2289 27.7134 32.2514 27.3075 32.0263 27.0257L29.8213 24.2688C30.2286 23.506 30.5608 22.7054 30.813 21.8782L34.3227 21.4886C34.6816 21.4489 34.9532 21.1456 34.9531 20.7845V15.1178C34.9534 14.758 34.6838 14.4552 34.3263 14.4138ZM33.5367 20.1506H33.5365L30.1883 20.5232C29.8978 20.5555 29.657 20.7628 29.5819 21.0452C29.3091 22.0748 28.9001 23.0634 28.3657 23.9848C28.2189 24.2377 28.2425 24.5548 28.4252 24.7831L30.5311 27.4152L27.4208 30.5255L24.7886 28.4196C24.5603 28.237 24.2432 28.2133 23.9904 28.3601C23.069 28.8945 22.0804 29.3035 21.0508 29.5764C20.7683 29.6514 20.561 29.8923 20.5287 30.1827L20.1561 33.5346H15.7574L15.3812 30.1827C15.349 29.8923 15.1416 29.6515 14.8592 29.5764C13.8296 29.3036 12.841 28.8945 11.9196 28.3601C11.6667 28.2133 11.3496 28.237 11.1213 28.4196L8.48919 30.5255L5.37891 27.4152L7.48479 24.7866C7.66747 24.5583 7.69111 24.2412 7.54429 23.9883C7.00992 23.067 6.60092 22.0784 6.32806 21.0487C6.25302 20.7663 6.01216 20.559 5.7217 20.5267L2.36984 20.1541V15.7553L5.7217 15.3792C6.01216 15.3469 6.25295 15.1396 6.32806 14.8572C6.60086 13.8276 7.00992 12.839 7.54429 11.9176C7.69111 11.6647 7.66747 11.3476 7.48479 11.1193L5.37891 8.48717L8.48919 5.37689L11.1249 7.48277C11.3532 7.66545 11.6703 7.6891 11.9232 7.54227C12.8446 7.0079 13.8332 6.5989 14.8628 6.32604C15.1452 6.251 15.3526 6.01014 15.3848 5.71968L15.7574 2.36782H20.1527L20.5253 5.71968C20.5576 6.01014 20.7649 6.25093 21.0473 6.32604C22.0769 6.59884 23.0655 7.0079 23.9869 7.54227C24.2398 7.6891 24.5569 7.66545 24.7852 7.48277L27.4173 5.37689L30.5276 8.49075L28.4217 11.1229C28.239 11.3512 28.2154 11.6683 28.3622 11.9212C28.8966 12.8426 29.3056 13.8312 29.5785 14.8608C29.6535 15.1432 29.8944 15.3505 30.1848 15.3828L33.5367 15.7554V20.1506Z" fill="#2A3F85"/>
<path d="M26.6057 13.109C23.9314 8.32949 17.889 6.62278 13.1095 9.29703C8.32996 11.9713 6.62325 18.0138 9.29757 22.7933C9.32924 22.8498 9.36849 22.9018 9.41431 22.9477C9.69069 23.2245 10.1392 23.2248 10.416 22.9485L15.0436 18.3209L16.6784 20.5012C16.6985 20.5279 16.7204 20.5533 16.7441 20.577C17.0208 20.8536 17.4692 20.8536 17.7459 20.577L22.2034 16.1194V18.6595H23.62V14.4095H23.6199C23.6199 14.0184 23.3029 13.7013 22.9117 13.7012H18.6617V15.1178H21.2018L17.3216 18.9981L15.6867 16.8178C15.5639 16.6529 15.3754 16.5495 15.1703 16.5345C14.9655 16.522 14.7651 16.5976 14.6192 16.742L10.1156 21.2449C8.89787 18.3466 9.38263 15.0125 11.3754 12.581C14.3454 8.95717 19.6908 8.42704 23.3147 11.3971C26.9386 14.367 27.4687 19.7124 24.4987 23.3363C24.2249 23.6703 23.9309 23.9778 23.6201 24.2589V20.0762H22.2034V25.2937C21.7494 25.5576 21.275 25.7769 20.7867 25.9505V21.4928H19.3701V26.3205C18.9023 26.4005 18.4282 26.4414 17.9534 26.4425V23.6178H16.5368V26.3274C16.058 26.2478 15.584 26.1264 15.1201 25.9632V22.2012H13.7034V25.3113C13.3074 25.0826 12.9246 24.8195 12.5594 24.5203L11.6591 25.6147C13.4338 27.0706 15.658 27.8668 17.9534 27.8679C19.6483 27.8676 21.3147 27.4329 22.7938 26.6053C27.5733 23.9311 29.28 17.8886 26.6057 13.109Z" fill="#2A3F85"/>
</g>
<defs>
<clipPath id="clip0_89_326">
<rect width="34" height="34" fill="white" transform="translate(0.953125 0.951172)"/>
</clipPath>
</defs>
</svg>
