<svg width="27" height="28" viewBox="0 0 27 28" fill="none" xmlns="http://www.w3.org/2000/svg">
<g id="calendar (1) 1" clip-path="url(#clip0_500_1121)">
<g id="Group">
<g id="Group_2">
<g id="Group_3">
<path id="Vector" d="M20.0049 12.5773C20.5658 12.5773 21.0205 12.1077 21.0205 11.5284C21.0205 10.9492 20.5658 10.4796 20.0049 10.4796C19.444 10.4796 18.9893 10.9492 18.9893 11.5284C18.9893 12.1077 19.444 12.5773 20.0049 12.5773Z" fill="white"/>
<path id="Vector_2" d="M22.3411 2.6134H21.0208V1.56458C21.0208 0.985307 20.5661 0.515747 20.0051 0.515747C19.4442 0.515747 18.9895 0.985307 18.9895 1.56458V2.6134H14.3683V1.56458C14.3683 0.985307 13.9136 0.515747 13.3527 0.515747C12.7918 0.515747 12.3371 0.985307 12.3371 1.56458V2.6134H7.76669V1.56458C7.76669 0.985307 7.31199 0.515747 6.75105 0.515747C6.19012 0.515747 5.73542 0.985307 5.73542 1.56458V2.6134H4.46587C2.22578 2.6134 0.40332 4.49542 0.40332 6.80872V23.1704C0.40332 25.4837 2.22578 27.3657 4.46587 27.3657H12.2355C12.7964 27.3657 13.2511 26.8962 13.2511 26.3169C13.2511 25.7377 12.7964 25.2681 12.2355 25.2681H4.46587C3.34582 25.2681 2.4346 24.3271 2.4346 23.1704V6.80872C2.4346 5.65207 3.34582 4.71106 4.46587 4.71106H5.73542V5.75989C5.73542 6.33916 6.19012 6.80872 6.75105 6.80872C7.31199 6.80872 7.76669 6.33916 7.76669 5.75989V4.71106H12.3371V5.75989C12.3371 6.33916 12.7918 6.80872 13.3527 6.80872C13.9136 6.80872 14.3683 6.33916 14.3683 5.75989V4.71106H18.9895V5.75989C18.9895 6.33916 19.4442 6.80872 20.0051 6.80872C20.5661 6.80872 21.0208 6.33916 21.0208 5.75989V4.71106H22.3411C23.4611 4.71106 24.3724 5.65207 24.3724 6.80872V12.787C24.3724 13.3663 24.8271 13.8359 25.388 13.8359C25.9489 13.8359 26.4036 13.3663 26.4036 12.787V6.80872C26.4036 4.49542 24.5812 2.6134 22.3411 2.6134Z" fill="white"/>
<path id="Vector_3" d="M20.2589 14.6749C16.8707 14.6749 14.1143 17.5214 14.1143 21.0203C14.1143 24.5192 16.8707 27.3657 20.2589 27.3657C23.647 27.3657 26.4035 24.5192 26.4035 21.0203C26.4035 17.5214 23.647 14.6749 20.2589 14.6749ZM20.2589 25.2681C17.9908 25.2681 16.1455 23.3626 16.1455 21.0203C16.1455 18.6781 17.9908 16.7726 20.2589 16.7726C22.5269 16.7726 24.3722 18.6781 24.3722 21.0203C24.3722 23.3626 22.5269 25.2681 20.2589 25.2681Z" fill="white"/>
<path id="Vector_4" d="M21.7315 19.9715H21.2744V18.8702C21.2744 18.291 20.8197 17.8214 20.2588 17.8214C19.6979 17.8214 19.2432 18.291 19.2432 18.8702V21.0203C19.2432 21.5996 19.6979 22.0692 20.2588 22.0692H21.7315C22.2924 22.0692 22.7471 21.5996 22.7471 21.0203C22.7471 20.4411 22.2924 19.9715 21.7315 19.9715Z" fill="white"/>
<path id="Vector_5" d="M15.5869 12.5773C16.1478 12.5773 16.6026 12.1077 16.6026 11.5284C16.6026 10.9492 16.1478 10.4796 15.5869 10.4796C15.026 10.4796 14.5713 10.9492 14.5713 11.5284C14.5713 12.1077 15.026 12.5773 15.5869 12.5773Z" fill="white"/>
<path id="Vector_6" d="M11.169 17.1396C11.7299 17.1396 12.1846 16.6701 12.1846 16.0908C12.1846 15.5116 11.7299 15.042 11.169 15.042C10.608 15.042 10.1533 15.5116 10.1533 16.0908C10.1533 16.6701 10.608 17.1396 11.169 17.1396Z" fill="white"/>
<path id="Vector_7" d="M6.75099 12.5773C7.31191 12.5773 7.76663 12.1077 7.76663 11.5284C7.76663 10.9492 7.31191 10.4796 6.75099 10.4796C6.19007 10.4796 5.73535 10.9492 5.73535 11.5284C5.73535 12.1077 6.19007 12.5773 6.75099 12.5773Z" fill="white"/>
<path id="Vector_8" d="M6.75099 17.1396C7.31191 17.1396 7.76663 16.6701 7.76663 16.0908C7.76663 15.5116 7.31191 15.042 6.75099 15.042C6.19007 15.042 5.73535 15.5116 5.73535 16.0908C5.73535 16.6701 6.19007 17.1396 6.75099 17.1396Z" fill="white"/>
<path id="Vector_9" d="M6.75099 21.702C7.31191 21.702 7.76663 21.2325 7.76663 20.6532C7.76663 20.0739 7.31191 19.6044 6.75099 19.6044C6.19007 19.6044 5.73535 20.0739 5.73535 20.6532C5.73535 21.2325 6.19007 21.702 6.75099 21.702Z" fill="white"/>
<path id="Vector_10" d="M11.169 21.702C11.7299 21.702 12.1846 21.2325 12.1846 20.6532C12.1846 20.0739 11.7299 19.6044 11.169 19.6044C10.608 19.6044 10.1533 20.0739 10.1533 20.6532C10.1533 21.2325 10.608 21.702 11.169 21.702Z" fill="white"/>
<path id="Vector_11" d="M11.169 12.5773C11.7299 12.5773 12.1846 12.1077 12.1846 11.5284C12.1846 10.9492 11.7299 10.4796 11.169 10.4796C10.608 10.4796 10.1533 10.9492 10.1533 11.5284C10.1533 12.1077 10.608 12.5773 11.169 12.5773Z" fill="white"/>
</g>
</g>
</g>
</g>
<defs>
<clipPath id="clip0_500_1121">
<rect width="26.0003" height="26.85" fill="white" transform="translate(0.40332 0.515747)"/>
</clipPath>
</defs>
</svg>
