<svg width="24" height="25" viewBox="0 0 24 25" fill="none" xmlns="http://www.w3.org/2000/svg">
<g id="exclmation_mark">
<g id="Group">
<path id="Vector" d="M12 0.5C18.6168 0.5 24 5.8832 24 12.5C24 19.1168 18.6168 24.5 12 24.5C5.3832 24.5 0 19.1168 0 12.5C0 5.8832 5.3832 0.5 12 0.5ZM12 22.1C17.2932 22.1 21.6 17.7932 21.6 12.5C21.6 7.2068 17.2932 2.9 12 2.9C6.7068 2.9 2.4 7.2068 2.4 12.5C2.4 17.7932 6.7068 22.1 12 22.1Z" fill="white"/>
<path id="Vector_2" d="M12.0012 6.5C12.6648 6.5 13.2012 7.0376 13.2012 7.7V13.7C13.2012 14.3624 12.6648 14.9 12.0012 14.9C11.3376 14.9 10.8012 14.3624 10.8012 13.7V7.7C10.8012 7.0376 11.3376 6.5 12.0012 6.5Z" fill="white"/>
<path id="Vector_3" d="M12.0012 16.0999C12.3132 16.0999 12.6252 16.2319 12.8532 16.4479C13.0704 16.6759 13.2012 16.9879 13.2012 17.2999C13.2012 17.6119 13.0704 17.9239 12.8532 18.1519C12.3972 18.5959 11.6052 18.5959 11.1492 18.1519C10.9332 17.9239 10.8012 17.6119 10.8012 17.2999C10.8012 16.9879 10.9332 16.6759 11.1492 16.4479C11.3772 16.2319 11.6892 16.0999 12.0012 16.0999Z" fill="white"/>
</g>
</g>
</svg>
