<svg width="28" height="28" viewBox="0 0 28 28" fill="none" xmlns="http://www.w3.org/2000/svg">
<g id="flats (1) 1" clip-path="url(#clip0_500_1136)">
<g id="Group">
<g id="Group_2">
<g id="Group_3">
<g id="Group_4">
<path id="Vector" d="M24.2541 27.3414H11.4854C10.8666 27.3414 10.3604 26.8352 10.3604 26.2164C10.3604 25.5977 10.8666 25.0914 11.4854 25.0914H23.1291V3.09766H12.6104V8.72266C12.6104 9.34141 12.1041 9.84766 11.4854 9.84766C10.8666 9.84766 10.3604 9.34141 10.3604 8.72266V1.97266C10.3604 1.35391 10.8666 0.847656 11.4854 0.847656H24.2541C24.8729 0.847656 25.3791 1.35391 25.3791 1.97266V26.2164C25.3229 26.8352 24.8166 27.3414 24.2541 27.3414Z" fill="white"/>
</g>
<g id="Group_5">
<path id="Vector_2" d="M16.3225 27.3414H3.55371C2.93496 27.3414 2.42871 26.8351 2.42871 26.2164V11.4226C2.42871 10.9164 2.76621 10.5226 3.21621 10.3539L15.985 6.47263C16.3225 6.36013 16.66 6.41638 16.9412 6.64138C17.2225 6.86638 17.3912 7.20388 17.3912 7.54138V26.2164C17.4475 26.8351 16.9412 27.3414 16.3225 27.3414ZM4.67871 25.1476H15.1975V9.06013L4.67871 12.2101V25.1476Z" fill="white"/>
</g>
</g>
<g id="Group_6">
<path id="Vector_3" d="M25.9971 27.3414H1.80957C1.19082 27.3414 0.68457 26.8352 0.68457 26.2164C0.68457 25.5977 1.19082 25.0914 1.80957 25.0914H26.0533C26.6721 25.0914 27.1783 25.5977 27.1783 26.2164C27.1783 26.8352 26.6158 27.3414 25.9971 27.3414Z" fill="white"/>
</g>
</g>
<g id="Group_7">
<path id="Vector_4" d="M9.96582 27.3414C9.34707 27.3414 8.84082 26.8351 8.84082 26.2164V20.9851C8.84082 20.3664 9.34707 19.8601 9.96582 19.8601C10.5846 19.8601 11.0908 20.3664 11.0908 20.9851V26.2164C11.0346 26.8351 10.5283 27.3414 9.96582 27.3414Z" fill="white"/>
</g>
</g>
</g>
<defs>
<clipPath id="clip0_500_1136">
<rect width="27" height="27" fill="white" transform="translate(0.40332 0.622681)"/>
</clipPath>
</defs>
</svg>
