<svg width="51" height="51" viewBox="0 0 51 51" fill="none" xmlns="http://www.w3.org/2000/svg">
<g id="global-economy 1" clip-path="url(#clip0_386_2735)">
<path id="Vector" d="M12.3725 45.3732C12.2745 45.3729 12.1777 45.3525 12.088 45.3131C11.9983 45.2738 11.9177 45.2165 11.8511 45.1447C11.7217 45.0071 11.6522 44.8239 11.6575 44.6352C11.6629 44.4465 11.7427 44.2675 11.8796 44.1375C15.5606 40.6958 20.4117 38.7813 25.4511 38.7813C30.4904 38.7812 35.3415 40.6958 39.0225 44.1375C39.1461 44.2696 39.215 44.4438 39.2152 44.6248C39.2154 44.8057 39.1469 44.98 39.0236 45.1124C38.9002 45.2448 38.7312 45.3255 38.5507 45.3381C38.3702 45.3507 38.1916 45.2943 38.0511 45.1804C34.6334 41.9909 30.1329 40.2172 25.4582 40.2172C20.7835 40.2172 16.283 41.9909 12.8653 45.1804C12.7318 45.3054 12.5554 45.3744 12.3725 45.3732Z" fill="url(#paint0_linear_386_2735)"/>
<path id="Vector_2" d="M25.451 50.5304C19.1296 50.5304 14.0225 41.6089 14.0225 30.6518C14.0225 30.4623 14.0977 30.2807 14.2317 30.1467C14.3656 30.0128 14.5473 29.9375 14.7367 29.9375C14.9262 29.9375 15.1079 30.0128 15.2418 30.1467C15.3758 30.2807 15.451 30.4623 15.451 30.6518C15.451 40.8232 19.9225 49.1018 25.451 49.1018C30.9796 49.1018 35.451 40.8232 35.451 30.6518C35.451 30.4623 35.5263 30.2807 35.6602 30.1467C35.7942 30.0128 35.9759 29.9375 36.1653 29.9375C36.3548 29.9375 36.5364 30.0128 36.6704 30.1467C36.8044 30.2807 36.8796 30.4623 36.8796 30.6518C36.8796 41.6089 31.7725 50.5304 25.451 50.5304Z" fill="url(#paint1_linear_386_2735)"/>
<path id="Vector_3" d="M25.451 50.5304C25.2616 50.5304 25.0799 50.4551 24.946 50.3211C24.812 50.1872 24.7368 50.0055 24.7368 49.8161V30.6518C24.7368 30.4623 24.812 30.2807 24.946 30.1467C25.0799 30.0128 25.2616 29.9375 25.451 29.9375C25.6405 29.9375 25.8222 30.0128 25.9561 30.1467C26.0901 30.2807 26.1653 30.4623 26.1653 30.6518V49.8161C26.1653 50.0055 26.0901 50.1872 25.9561 50.3211C25.8222 50.4551 25.6405 50.5304 25.451 50.5304Z" fill="url(#paint2_linear_386_2735)"/>
<path id="Vector_4" d="M25.451 50.5304C20.1806 50.5247 15.1277 48.4285 11.401 44.7018C7.67429 40.9751 5.57812 35.9222 5.57245 30.6518C5.57245 30.4623 5.6477 30.2807 5.78166 30.1467C5.91561 30.0128 6.09729 29.9375 6.28673 29.9375H44.6153C44.8047 29.9375 44.9864 30.0128 45.1204 30.1467C45.2543 30.2807 45.3296 30.4623 45.3296 30.6518C45.3239 35.9222 43.2278 40.9751 39.501 44.7018C35.7743 48.4285 30.7214 50.5247 25.451 50.5304ZM7.01531 31.3661C7.20288 36.1299 9.22727 40.6363 12.6641 43.9405C16.101 47.2446 20.6835 49.0902 25.451 49.0902C30.2186 49.0902 34.8011 47.2446 38.2379 43.9405C41.6748 40.6363 43.6992 36.1299 43.8867 31.3661H7.01531Z" fill="url(#paint3_linear_386_2735)"/>
<path id="Vector_5" d="M15.3796 28.0091H11.3439C11.1545 28.0091 10.9728 27.9338 10.8388 27.7999C10.7049 27.6659 10.6296 27.4842 10.6296 27.2948V22.8305C10.6296 22.6411 10.7049 22.4594 10.8388 22.3254C10.9728 22.1915 11.1545 22.1162 11.3439 22.1162H15.3796C15.5691 22.1162 15.7508 22.1915 15.8847 22.3254C16.0187 22.4594 16.0939 22.6411 16.0939 22.8305V27.2948C16.0939 27.4842 16.0187 27.6659 15.8847 27.7999C15.7508 27.9338 15.5691 28.0091 15.3796 28.0091ZM12.0582 26.5805H14.6654V23.5448H12.0582V26.5805Z" fill="url(#paint4_linear_386_2735)"/>
<path id="Vector_6" d="M23.4368 28.0088H19.4082C19.2188 28.0088 19.0371 27.9336 18.9031 27.7996C18.7692 27.6657 18.6939 27.484 18.6939 27.2945V17.5517C18.6939 17.3622 18.7692 17.1806 18.9031 17.0466C19.0371 16.9127 19.2188 16.8374 19.4082 16.8374H23.4368C23.6262 16.8374 23.8079 16.9127 23.9418 17.0466C24.0758 17.1806 24.1511 17.3622 24.1511 17.5517V27.2945C24.1511 27.484 24.0758 27.6657 23.9418 27.7996C23.8079 27.9336 23.6262 28.0088 23.4368 28.0088ZM20.1225 26.5803H22.7225V18.266H20.1225V26.5803Z" fill="url(#paint5_linear_386_2735)"/>
<path id="Vector_7" d="M31.4939 28.0086H27.4653C27.2759 28.0086 27.0942 27.9334 26.9602 27.7994C26.8263 27.6655 26.751 27.4838 26.751 27.2944V12.8515C26.751 12.6621 26.8263 12.4804 26.9602 12.3464C27.0942 12.2125 27.2759 12.1372 27.4653 12.1372H31.4939C31.6833 12.1372 31.865 12.2125 31.999 12.3464C32.1329 12.4804 32.2082 12.6621 32.2082 12.8515V27.2944C32.2082 27.4838 32.1329 27.6655 31.999 27.7994C31.865 27.9334 31.6833 28.0086 31.4939 28.0086ZM28.1796 26.5801H30.7796V13.5658H28.1796V26.5801Z" fill="url(#paint6_linear_386_2735)"/>
<path id="Vector_8" d="M39.5582 28.0091H35.5225C35.3331 28.0091 35.1514 27.9338 35.0174 27.7999C34.8835 27.6659 34.8082 27.4842 34.8082 27.2948V6.5805C34.8082 6.39106 34.8835 6.20938 35.0174 6.07542C35.1514 5.94147 35.3331 5.86621 35.5225 5.86621H39.5582C39.7477 5.86621 39.9294 5.94147 40.0633 6.07542C40.1973 6.20938 40.2725 6.39106 40.2725 6.5805V27.2948C40.2725 27.4842 40.1973 27.6659 40.0633 27.7999C39.9294 27.9338 39.7477 28.0091 39.5582 28.0091ZM36.2368 26.5805H38.8439V7.29478H36.2368V26.5805Z" fill="url(#paint7_linear_386_2735)"/>
<path id="Vector_9" d="M13.3653 16.8802C13.255 16.8811 13.1461 16.8563 13.0469 16.808C12.9478 16.7597 12.8612 16.6891 12.7939 16.6017C12.7357 16.5273 12.6929 16.4421 12.6679 16.3511C12.6429 16.26 12.6361 16.1649 12.6481 16.0713C12.66 15.9776 12.6904 15.8872 12.7375 15.8054C12.7846 15.7236 12.8475 15.6519 12.9225 15.5945L31.7296 1.1088C31.8803 1.0156 32.0602 0.981706 32.2344 1.0137C32.4087 1.0457 32.5648 1.1413 32.6725 1.28195C32.7802 1.42259 32.8318 1.59825 32.8173 1.7748C32.8028 1.95136 32.7231 2.11622 32.5939 2.23737L13.801 16.7302C13.6764 16.827 13.5231 16.8797 13.3653 16.8802Z" fill="url(#paint8_linear_386_2735)"/>
<path id="Vector_10" d="M31.7367 7.26595H31.6725C31.4841 7.24959 31.3099 7.1592 31.188 7.01459C31.0662 6.86998 31.0066 6.68295 31.0225 6.49452L31.3939 2.33023L27.2296 1.9588C27.1358 1.95036 27.0446 1.92353 26.9612 1.87983C26.8777 1.83613 26.8037 1.77643 26.7434 1.70414C26.683 1.63184 26.6375 1.54836 26.6094 1.45847C26.5813 1.36858 26.5712 1.27403 26.5796 1.18023C26.5881 1.08643 26.6149 0.995209 26.6586 0.911779C26.7023 0.828349 26.762 0.754341 26.8343 0.693983C26.9066 0.633625 26.99 0.588098 27.0799 0.560001C27.1698 0.531905 27.2644 0.521789 27.3582 0.530231L32.2296 0.965945C32.418 0.9823 32.5922 1.07269 32.7141 1.2173C32.8359 1.36191 32.8954 1.54894 32.8796 1.73737L32.451 6.6088C32.4366 6.78817 32.3551 6.9555 32.2227 7.07733C32.0902 7.19916 31.9167 7.26652 31.7367 7.26595Z" fill="url(#paint9_linear_386_2735)"/>
</g>
<defs>
<linearGradient id="paint0_linear_386_2735" x1="35.2426" y1="40.4892" x2="27.5456" y2="51.7354" gradientUnits="userSpaceOnUse">
<stop stop-color="white"/>
<stop offset="1" stop-color="#B8C9FF"/>
</linearGradient>
<linearGradient id="paint1_linear_386_2735" x1="33.5846" y1="35.2731" x2="16.1894" y2="42.0213" gradientUnits="userSpaceOnUse">
<stop stop-color="white"/>
<stop offset="1" stop-color="#B8C9FF"/>
</linearGradient>
<linearGradient id="paint2_linear_386_2735" x1="25.9594" y1="35.2731" x2="24.7093" y2="35.3034" gradientUnits="userSpaceOnUse">
<stop stop-color="white"/>
<stop offset="1" stop-color="#B8C9FF"/>
</linearGradient>
<linearGradient id="paint3_linear_386_2735" x1="39.5984" y1="35.2731" x2="15.6789" y2="51.4132" gradientUnits="userSpaceOnUse">
<stop stop-color="white"/>
<stop offset="1" stop-color="#B8C9FF"/>
</linearGradient>
<linearGradient id="paint4_linear_386_2735" x1="15.3062" y1="23.643" x2="10.9766" y2="25.0462" gradientUnits="userSpaceOnUse">
<stop stop-color="white"/>
<stop offset="1" stop-color="#B8C9FF"/>
</linearGradient>
<linearGradient id="paint5_linear_386_2735" x1="23.3644" y1="19.7319" x2="18.7216" y2="20.5246" gradientUnits="userSpaceOnUse">
<stop stop-color="white"/>
<stop offset="1" stop-color="#B8C9FF"/>
</linearGradient>
<linearGradient id="paint6_linear_386_2735" x1="31.4215" y1="16.2495" x2="26.7114" y2="16.8155" gradientUnits="userSpaceOnUse">
<stop stop-color="white"/>
<stop offset="1" stop-color="#B8C9FF"/>
</linearGradient>
<linearGradient id="paint7_linear_386_2735" x1="39.4848" y1="11.6034" x2="34.7358" y2="12.013" gradientUnits="userSpaceOnUse">
<stop stop-color="white"/>
<stop offset="1" stop-color="#B8C9FF"/>
</linearGradient>
<linearGradient id="paint8_linear_386_2735" x1="29.911" y1="5.11599" x2="15.155" y2="11.6697" gradientUnits="userSpaceOnUse">
<stop stop-color="white"/>
<stop offset="1" stop-color="#B8C9FF"/>
</linearGradient>
<linearGradient id="paint9_linear_386_2735" x1="31.9732" y1="2.2733" x2="26.9858" y2="3.90438" gradientUnits="userSpaceOnUse">
<stop stop-color="white"/>
<stop offset="1" stop-color="#B8C9FF"/>
</linearGradient>
<clipPath id="clip0_386_2735">
<rect width="50" height="50" fill="white" transform="translate(0.45105 0.530273)"/>
</clipPath>
</defs>
</svg>
