<svg width="34" height="34" viewBox="0 0 34 34" fill="none" xmlns="http://www.w3.org/2000/svg">
<g id="uil:instagram">
<path id="Vector" d="M24.3957 7.58535C24.0694 7.58535 23.7504 7.68212 23.479 7.86344C23.2077 8.04475 22.9962 8.30245 22.8713 8.60397C22.7464 8.90548 22.7137 9.23725 22.7774 9.55733C22.841 9.87742 22.9982 10.1714 23.229 10.4022C23.4597 10.633 23.7537 10.7901 24.0738 10.8538C24.3939 10.9175 24.7257 10.8848 25.0272 10.7599C25.3287 10.635 25.5864 10.4235 25.7677 10.1522C25.949 9.8808 26.0458 9.56177 26.0458 9.23542C26.0458 8.79779 25.872 8.37809 25.5625 8.06864C25.2531 7.75919 24.8334 7.58535 24.3957 7.58535ZM30.721 10.913C30.694 9.77213 30.4804 8.64339 30.0885 7.5716C29.7404 6.65381 29.1961 5.82315 28.4934 5.13774C27.8125 4.43292 26.9803 3.89218 26.0596 3.55642C24.9907 3.15237 23.8606 2.93381 22.7182 2.91014C21.2606 2.82764 20.7931 2.82764 17.0529 2.82764C13.3128 2.82764 12.8452 2.82764 11.3877 2.91014C10.2452 2.93381 9.11516 3.15237 8.04627 3.55642C7.1277 3.89641 6.29631 4.43657 5.61241 5.13774C4.90759 5.81864 4.36685 6.65091 4.03109 7.5716C3.62704 8.64049 3.40848 9.77053 3.38481 10.913C3.30231 12.3706 3.30231 12.8381 3.30231 16.5782C3.30231 20.3184 3.30231 20.7859 3.38481 22.2435C3.40848 23.386 3.62704 24.516 4.03109 25.5849C4.36685 26.5056 4.90759 27.3379 5.61241 28.0188C6.29631 28.7199 7.1277 29.2601 8.04627 29.6001C9.11516 30.0041 10.2452 30.2227 11.3877 30.2464C12.8452 30.3289 13.3128 30.3289 17.0529 30.3289C20.7931 30.3289 21.2606 30.3289 22.7182 30.2464C23.8606 30.2227 24.9907 30.0041 26.0596 29.6001C26.9803 29.2643 27.8125 28.7236 28.4934 28.0188C29.1978 27.3348 29.7424 26.5037 30.0885 25.5849C30.4804 24.5131 30.694 23.3844 30.721 22.2435C30.721 20.7859 30.8035 20.3184 30.8035 16.5782C30.8035 12.8381 30.8035 12.3706 30.721 10.913ZM28.2459 22.0785C28.2362 22.9514 28.0781 23.8162 27.7784 24.6361C27.5588 25.2345 27.2062 25.7752 26.7471 26.2174C26.3008 26.6716 25.7613 27.0234 25.1658 27.2487C24.3459 27.5484 23.481 27.7065 22.6082 27.7162C21.2331 27.785 20.7243 27.7987 17.1079 27.7987C13.4915 27.7987 12.9827 27.7987 11.6077 27.7162C10.7013 27.734 9.79872 27.5945 8.94006 27.3037C8.37104 27.0663 7.85638 26.7154 7.42749 26.2724C6.97109 25.8307 6.62286 25.2895 6.40995 24.6911C6.07312 23.8597 5.88687 22.9751 5.85992 22.0785C5.85992 20.7034 5.77742 20.1947 5.77742 16.5782C5.77742 12.9618 5.77742 12.4531 5.85992 11.078C5.86494 10.1856 6.02787 9.30104 6.34119 8.46539C6.58327 7.88499 6.95483 7.36762 7.42749 6.95282C7.84403 6.47869 8.36065 6.10296 8.94006 5.85277C9.77802 5.54954 10.6616 5.39143 11.5527 5.38525C12.9277 5.38525 13.4365 5.30275 17.0529 5.30275C20.6693 5.30275 21.1781 5.30275 22.5532 5.38525C23.426 5.395 24.2909 5.55309 25.1108 5.85277C25.7356 6.08468 26.2965 6.46171 26.7471 6.95282C27.1964 7.37637 27.5482 7.89246 27.7784 8.46539C28.0843 9.30264 28.2425 10.1866 28.2459 11.078C28.3147 12.4531 28.3284 12.9618 28.3284 16.5782C28.3284 20.1947 28.3147 20.7034 28.2459 22.0785ZM17.0529 9.52418C15.6583 9.5269 14.2959 9.94293 13.1376 10.7197C11.9794 11.4964 11.0774 12.5991 10.5456 13.8883C10.0138 15.1775 9.87609 16.5954 10.1498 17.9628C10.4236 19.3303 11.0965 20.5859 12.0836 21.5711C13.0706 22.5562 14.3276 23.2267 15.6955 23.4978C17.0635 23.7688 18.4811 23.6283 19.7693 23.094C21.0575 22.5597 22.1584 21.6556 22.9329 20.4958C23.7074 19.3361 24.1207 17.9728 24.1207 16.5782C24.1225 15.6502 23.9409 14.731 23.5862 13.8734C23.2314 13.0159 22.7107 12.2369 22.0538 11.5813C21.397 10.9258 20.617 10.4065 19.7588 10.0535C18.9005 9.70044 17.9809 9.52056 17.0529 9.52418ZM17.0529 21.1572C16.1473 21.1572 15.262 20.8886 14.509 20.3855C13.756 19.8824 13.1691 19.1672 12.8225 18.3305C12.4759 17.4938 12.3853 16.5732 12.5619 15.6849C12.7386 14.7967 13.1747 13.9808 13.8151 13.3404C14.4555 12.7001 15.2714 12.264 16.1596 12.0873C17.0478 11.9106 17.9685 12.0013 18.8052 12.3478C19.6419 12.6944 20.357 13.2813 20.8602 14.0343C21.3633 14.7873 21.6319 15.6726 21.6319 16.5782C21.6319 17.1796 21.5134 17.775 21.2833 18.3305C21.0532 18.8861 20.7159 19.3909 20.2907 19.8161C19.8655 20.2413 19.3608 20.5785 18.8052 20.8086C18.2497 21.0388 17.6542 21.1572 17.0529 21.1572Z" fill="url(#paint0_linear_388_17514)"/>
</g>
<defs>
<linearGradient id="paint0_linear_388_17514" x1="3.30231" y1="16.5782" x2="30.8035" y2="16.5782" gradientUnits="userSpaceOnUse">
<stop stop-color="#9AA7D2"/>
<stop offset="1" stop-color="#2A3F85"/>
</linearGradient>
</defs>
</svg>
