<svg width="41" height="41" viewBox="0 0 41 41" fill="none" xmlns="http://www.w3.org/2000/svg">
<path fill-rule="evenodd" clip-rule="evenodd" d="M30.3954 18.8903H25.1146L27.7531 14.1161L30.3954 18.8903ZM27.7531 22.4688C26.276 22.4688 25.0406 21.4005 24.7795 19.9948H30.7306C30.4695 21.4005 29.234 22.4688 27.7531 22.4688ZM13.4423 22.4688C11.9613 22.4688 10.7259 21.4005 10.4687 19.9948H16.4198C16.1587 21.4005 14.9232 22.4688 13.4423 22.4688ZM13.4423 14.1161L16.0846 18.8903H10.8L13.4423 14.1161ZM12.9591 12.7076L9.38139 19.1756C9.33851 19.2551 9.31123 19.3459 9.31123 19.4425C9.31123 21.7204 11.1664 23.5732 13.4424 23.5732C15.7184 23.5732 17.5735 21.7204 17.5735 19.4425C17.5735 19.3459 17.5462 19.2551 17.5033 19.1756L14.3777 13.5272H20.0444V26.792H15.9833C15.6754 26.792 15.4299 27.0391 15.4299 27.3446C15.4299 27.6494 15.6754 27.8968 15.9833 27.8968H25.216C25.52 27.8968 25.7694 27.6494 25.7694 27.3446C25.7694 27.0391 25.52 26.792 25.216 26.792H21.1512V13.5272H26.8178L23.6922 19.1756C23.6493 19.2551 23.626 19.3459 23.626 19.4425C23.626 21.7204 25.4772 23.5732 27.7532 23.5732C30.0331 23.5732 31.8843 21.7204 31.8843 19.4425C31.8843 19.3459 31.8609 19.2551 31.8141 19.1756L28.2364 12.7076C28.139 12.5315 27.9558 12.4228 27.7532 12.4228H13.4423C13.2396 12.4228 13.0564 12.5315 12.9591 12.7076ZM20.5977 36.8758C29.6588 31.5338 35.3488 21.802 35.5593 11.3062C29.1093 10.9859 23.5986 7.89069 20.5977 5.13613C17.5968 7.89069 12.0861 10.9859 5.63611 11.3063C5.84651 21.802 11.5366 31.5338 20.5977 36.8758ZM36.1322 10.2224C29.4796 10.056 23.8168 6.75573 20.9836 3.98013C20.7692 3.76965 20.4263 3.76965 20.2119 3.98013C17.3824 6.75573 11.7159 10.056 5.06323 10.2224C4.76315 10.2294 4.52539 10.4749 4.52539 10.7754C4.53707 16.396 6.05315 21.9087 8.90203 26.7184C11.6691 31.388 15.6209 35.2868 20.321 37.9932C20.4917 38.0912 20.7048 38.0905 20.8744 37.9932C25.5784 35.2869 29.5264 31.3881 32.2934 26.7184C35.1462 21.9088 36.6584 16.396 36.67 10.7754C36.6739 10.4749 36.4323 10.2294 36.1322 10.2224Z" fill="#2A3F85"/>
</svg>
