<svg width="34" height="35" viewBox="0 0 34 35" fill="none" xmlns="http://www.w3.org/2000/svg">
<g id="mingcute:linkedin-line">
<g id="Group">
<path id="Vector" d="M25.0942 4.34473C26.1882 4.34473 27.2374 4.79431 28.011 5.59457C28.7846 6.39484 29.2192 7.48022 29.2192 8.61197V25.6809C29.2192 26.8127 28.7846 27.8981 28.011 28.6983C27.2374 29.4986 26.1882 29.9482 25.0942 29.9482H8.59418C7.50016 29.9482 6.45095 29.4986 5.67736 28.6983C4.90377 27.8981 4.46918 26.8127 4.46918 25.6809V8.61197C4.46918 7.48022 4.90377 6.39484 5.67736 5.59457C6.45095 4.79431 7.50016 4.34473 8.59418 4.34473H25.0942ZM25.0942 7.18955H8.59418C8.2295 7.18955 7.87977 7.33941 7.62191 7.60617C7.36404 7.87292 7.21918 8.23472 7.21918 8.61197V25.6809C7.21918 26.0582 7.36404 26.42 7.62191 26.6867C7.87977 26.9535 8.2295 27.1033 8.59418 27.1033H25.0942C25.4589 27.1033 25.8086 26.9535 26.0665 26.6867C26.3243 26.42 26.4692 26.0582 26.4692 25.6809V8.61197C26.4692 8.23472 26.3243 7.87292 26.0665 7.60617C25.8086 7.33941 25.4589 7.18955 25.0942 7.18955ZM11.3442 14.3016C11.681 14.3017 12.006 14.4296 12.2577 14.6611C12.5094 14.8926 12.6701 15.2116 12.7096 15.5576L12.7192 15.724V22.8361C12.7188 23.1986 12.5846 23.5474 12.344 23.811C12.1034 24.0746 11.7746 24.2332 11.4248 24.2545C11.0749 24.2757 10.7304 24.158 10.4617 23.9253C10.1929 23.6926 10.0202 23.3625 9.9788 23.0025L9.96918 22.8361V15.724C9.96918 15.3468 10.114 14.985 10.3719 14.7182C10.6298 14.4515 10.9795 14.3016 11.3442 14.3016ZM15.4692 12.8792C15.7912 12.8792 16.103 12.996 16.3503 13.2094C16.5975 13.4229 16.7645 13.7193 16.8222 14.047C17.0991 13.8816 17.3852 13.7329 17.6788 13.6018C18.5959 13.1964 19.9696 12.9731 21.2098 13.3756C21.8602 13.589 22.5133 13.9873 22.9973 14.6658C23.4304 15.2703 23.6642 16.0057 23.7109 16.8321L23.7192 17.1464V22.8361C23.7188 23.1986 23.5846 23.5474 23.344 23.811C23.1034 24.0746 22.7746 24.2332 22.4248 24.2545C22.0749 24.2757 21.7304 24.158 21.4617 23.9253C21.1929 23.6926 21.0202 23.3625 20.9788 23.0025L20.9692 22.8361V17.1464C20.9692 16.6771 20.8592 16.458 20.7877 16.357C20.6849 16.2251 20.5435 16.1313 20.3848 16.0896C19.9063 15.9331 19.2174 16.0156 18.7596 16.2176C18.0721 16.522 17.4423 16.9999 17.0133 17.4423L16.8442 17.6301V22.8361C16.8438 23.1986 16.7096 23.5474 16.469 23.811C16.2284 24.0746 15.8996 24.2332 15.5498 24.2545C15.1999 24.2757 14.8554 24.158 14.5867 23.9253C14.3179 23.6926 14.1452 23.3625 14.1038 23.0025L14.0942 22.8361V14.3016C14.0942 13.9244 14.239 13.5626 14.4969 13.2958C14.7548 13.0291 15.1045 12.8792 15.4692 12.8792ZM11.3442 10.0344C11.7088 10.0344 12.0586 10.1842 12.3164 10.451C12.5743 10.7178 12.7192 11.0795 12.7192 11.4568C12.7192 11.834 12.5743 12.1958 12.3164 12.4626C12.0586 12.7293 11.7088 12.8792 11.3442 12.8792C10.9795 12.8792 10.6298 12.7293 10.3719 12.4626C10.114 12.1958 9.96918 11.834 9.96918 11.4568C9.96918 11.0795 10.114 10.7178 10.3719 10.451C10.6298 10.1842 10.9795 10.0344 11.3442 10.0344Z" fill="url(#paint0_linear_388_18756)"/>
</g>
</g>
<defs>
<linearGradient id="paint0_linear_388_18756" x1="4.46918" y1="17.1464" x2="29.2192" y2="17.1464" gradientUnits="userSpaceOnUse">
<stop stop-color="#9AA7D2"/>
<stop offset="1" stop-color="#2A3F85"/>
</linearGradient>
</defs>
</svg>
