<svg width="67" height="67" viewBox="0 0 67 67" fill="none" xmlns="http://www.w3.org/2000/svg">
<g id="mortage 1">
<g id="_x32_2_Mortgage">
<g id="Group">
<path id="Vector" d="M59.9068 2.01038H25.084C21.8014 2.01038 19.1306 4.67899 19.1306 7.95927V12.4678L11.9142 19.6842C11.7981 19.8003 11.6983 20.0034 11.6983 20.2051V37.9725C11.6983 38.3793 12.028 38.7093 12.4351 38.7093C12.8422 38.7093 13.1719 38.3793 13.1719 37.9725V20.9414H19.5868C22.1732 20.9414 24.2772 18.8374 24.2772 16.2513V9.83537H53.3195C55.324 9.83537 56.9548 11.4684 56.9548 13.4754V59.0313C56.9548 61.036 55.324 62.6666 53.3195 62.6666H22.1662C21.7592 62.6666 21.4294 62.9966 21.4294 63.4034C21.4294 63.8102 21.7592 64.1402 22.1662 64.1402H53.3194C56.1365 64.1402 58.4283 61.8481 58.4283 59.0313V57.7884H59.9068C63.1896 57.7884 65.8604 55.1173 65.8604 51.8347V7.95914C65.8604 4.67899 63.1896 2.01038 59.9068 2.01038ZM22.8036 16.2514C22.8036 18.0249 21.3606 19.4679 19.5868 19.4679H14.2153L22.8036 10.8796V16.2514ZM64.3868 51.8347C64.3868 54.3052 62.377 56.3147 59.9068 56.3147H58.4283V13.4753C58.4283 10.6556 56.1365 8.36159 53.3194 8.36159H23.5418C23.3372 8.36159 23.1343 8.46381 23.0209 8.5775L20.6044 10.994V7.95914C20.6044 5.49149 22.6139 3.4839 25.0842 3.4839H59.9069C62.3771 3.4839 64.3869 5.49149 64.3869 7.95914V51.8347H64.3868Z" fill="url(#paint0_linear_15_175)"/>
<path id="Vector_2" d="M30.0406 12.8517H28.1935C27.1209 12.8517 26.2483 13.7243 26.2483 14.7969V19.2373L23.7183 20.7463C22.4863 21.4802 22.0783 23.0746 22.8164 24.3129C23.3524 25.2115 24.3976 25.7442 25.5311 25.5296V33.5909C25.5311 36.0312 27.5188 38.0166 29.9618 38.0166H44.0991C46.5423 38.0166 48.5299 36.0311 48.5299 33.5909V25.4594C48.7993 25.5499 49.0763 25.5995 49.352 25.5995C50.2494 25.5995 51.1236 25.1355 51.6057 24.3056C52.3263 23.0656 51.9036 21.4701 50.6633 20.7491L38.4653 13.6615C37.5696 13.1406 36.4601 13.1473 35.57 13.6778L31.9858 15.8154V14.7969C31.9858 13.7243 31.1132 12.8517 30.0406 12.8517ZM27.722 14.7969C27.722 14.5369 27.9335 14.3253 28.1935 14.3253H30.0406C30.3006 14.3253 30.5121 14.5369 30.5121 14.7969V16.6944L27.722 18.3584V14.7969ZM44.0991 36.543H29.962C28.3314 36.543 27.0049 35.2185 27.0049 33.5909V24.8433L36.8425 18.9771C36.9858 18.8906 37.12 18.9189 37.2555 18.9761C50.6867 26.7796 46.054 24.0881 47.0564 24.6705V33.591C47.0564 35.2186 45.7296 36.543 44.0991 36.543ZM36.3253 14.9432C36.7551 14.6865 37.2914 14.6832 37.7251 14.9355L49.9231 22.0231C50.4609 22.3358 50.6441 23.0277 50.3319 23.5648C50.0194 24.1021 49.3276 24.2854 48.7903 23.9736C38.0645 17.7428 48.5319 23.8199 37.9446 17.6759C37.4261 17.3945 36.8378 17.379 36.3292 17.5907C36.1175 17.6788 25.6771 23.9192 25.628 23.9486C25.0934 24.2676 24.4016 24.0932 24.0822 23.5576C23.7639 23.0248 23.9355 22.3325 24.4731 22.0115C28.5221 19.597 32.2381 17.3807 36.3253 14.9432Z" fill="url(#paint1_linear_15_175)"/>
<path id="Vector_3" d="M40.7057 23.2441H33.3544C32.2174 23.2441 31.2927 24.169 31.2927 25.3059V31.65C31.2927 32.7869 32.2176 33.7117 33.3544 33.7117H40.7057C41.8426 33.7117 42.7674 32.7868 42.7674 31.65V25.3059C42.7675 24.1689 41.8426 23.2441 40.7057 23.2441ZM41.2939 25.3059V27.7413H37.767V24.7177H40.7057C41.03 24.7178 41.2939 24.9815 41.2939 25.3059ZM33.3544 24.7178H36.2933V27.7414H32.7663V25.306C32.7663 24.9815 33.0302 24.7178 33.3544 24.7178ZM32.7663 31.65V29.2149H36.2933V32.2381H33.3544C33.0302 32.2382 32.7663 31.9743 32.7663 31.65ZM40.7057 32.2382H37.767V29.2151H41.2939V31.6501C41.2939 31.9743 41.03 32.2382 40.7057 32.2382Z" fill="url(#paint2_linear_15_175)"/>
<path id="Vector_4" d="M23.1858 42.4392H32.0843C32.4914 42.4392 32.8211 42.1092 32.8211 41.7024C32.8211 41.2956 32.4914 40.9656 32.0843 40.9656H23.1858C22.7787 40.9656 22.4489 41.2956 22.4489 41.7024C22.4489 42.1091 22.7788 42.4392 23.1858 42.4392Z" fill="url(#paint3_linear_15_175)"/>
<path id="Vector_5" d="M50.7381 42.4392C51.1451 42.4392 51.4749 42.1092 51.4749 41.7024C51.4749 41.2956 51.1451 40.9656 50.7381 40.9656H36.077C35.67 40.9656 35.3402 41.2956 35.3402 41.7024C35.3402 42.1092 35.67 42.4392 36.077 42.4392H50.7381Z" fill="url(#paint4_linear_15_175)"/>
<path id="Vector_6" d="M50.7405 46.687H26.9114C26.5043 46.687 26.1746 47.017 26.1746 47.4238C26.1746 47.8307 26.5043 48.1607 26.9114 48.1607H50.7405C51.1476 48.1607 51.4773 47.8307 51.4773 47.4238C51.4773 47.017 51.1476 46.687 50.7405 46.687Z" fill="url(#paint5_linear_15_175)"/>
<path id="Vector_7" d="M36.0778 53.8782C36.4849 53.8782 36.8146 53.5482 36.8146 53.1414C36.8146 52.7345 36.4849 52.4045 36.0778 52.4045H27.6827C27.2756 52.4045 26.9458 52.7345 26.9458 53.1414C26.9458 53.5482 27.2756 53.8782 27.6827 53.8782H36.0778Z" fill="url(#paint6_linear_15_175)"/>
<path id="Vector_8" d="M25.9979 58.8626C25.9979 59.2694 26.3276 59.5994 26.7347 59.5994H50.7381C51.1452 59.5994 51.4749 59.2694 51.4749 58.8626C51.4749 58.4557 51.1452 58.1257 50.7381 58.1257H26.7347C26.3277 58.1257 25.9979 58.4557 25.9979 58.8626Z" fill="url(#paint7_linear_15_175)"/>
<path id="Vector_9" d="M50.7381 52.4056H38.7365C38.3294 52.4056 37.9997 52.7356 37.9997 53.1425C37.9997 53.5493 38.3294 53.8793 38.7365 53.8793H50.7381C51.1451 53.8793 51.4749 53.5493 51.4749 53.1425C51.4749 52.7356 51.1451 52.4056 50.7381 52.4056Z" fill="url(#paint8_linear_15_175)"/>
<path id="Vector_10" d="M25.511 52.1432C25.511 45.5251 20.127 40.1414 13.5089 40.1414C6.89306 40.1414 1.51045 45.5251 1.51045 52.1432C1.51045 58.7593 6.89306 64.1416 13.5089 64.1416C20.127 64.1416 25.511 58.7593 25.511 52.1432ZM2.98411 52.1432C2.98411 46.3378 7.70543 41.615 13.5089 41.615C19.3143 41.615 24.0373 46.3378 24.0373 52.1432C24.0373 57.9467 19.3143 62.668 13.5089 62.668C7.70543 62.668 2.98411 57.9467 2.98411 52.1432Z" fill="url(#paint9_linear_15_175)"/>
<path id="Vector_11" d="M19.2 49.5608C20.0566 48.7036 20.0566 47.3096 19.1997 46.4523C18.3425 45.595 16.9483 45.5959 16.0914 46.4523L7.82145 54.722C6.96487 55.5792 6.96487 56.9732 7.82171 57.8306C8.681 58.6895 10.0746 58.6859 10.93 57.8306L19.1997 49.5608H19.2ZM18.1578 48.5189L9.88808 56.7886C9.60551 57.0702 9.14596 57.0707 8.86392 56.7886C8.58135 56.5061 8.58135 56.0465 8.86366 55.7639L17.1334 47.4942C17.4157 47.2124 17.8752 47.2119 18.1575 47.4942C18.4401 47.7768 18.4401 48.2363 18.1575 48.5189H18.1578Z" fill="url(#paint10_linear_15_175)"/>
<path id="Vector_12" d="M16.3135 54.9441C15.3351 55.9222 15.3351 57.5138 16.3135 58.492C17.2904 59.4694 18.8831 59.4705 19.8611 58.492C20.8395 57.5138 20.8395 55.9222 19.8611 54.9441C18.8829 53.9656 17.2914 53.9656 16.3135 54.9441ZM18.8193 55.986C19.2231 56.3895 19.2231 57.0467 18.8193 57.4502C18.4156 57.854 17.7587 57.854 17.3555 57.4502C16.9517 57.0467 16.9517 56.3895 17.3555 55.986C17.7583 55.5828 18.4158 55.5822 18.8193 55.986Z" fill="url(#paint11_linear_15_175)"/>
<path id="Vector_13" d="M10.7079 49.3388C11.6863 48.3606 11.6863 46.769 10.7079 45.7909C9.7295 44.8122 8.13815 44.8122 7.16027 45.7909C6.18187 46.769 6.18187 48.3606 7.16027 49.3388C8.13712 50.3161 9.72976 50.3174 10.7079 49.3388ZM8.20209 48.2968C7.79835 47.8933 7.79835 47.2362 8.20209 46.8327C8.60492 46.4293 9.26247 46.4288 9.66595 46.8327C10.0697 47.2362 10.0697 47.8933 9.66595 48.2968C9.26247 48.7012 8.60556 48.7003 8.20209 48.2968Z" fill="url(#paint12_linear_15_175)"/>
</g>
</g>
</g>
<defs>
<linearGradient id="paint0_linear_15_175" x1="55.4412" y1="2.32371" x2="8.1998" y2="35.0379" gradientUnits="userSpaceOnUse">
<stop stop-color="white"/>
<stop offset="1" stop-color="#A6BBFF"/>
</linearGradient>
<linearGradient id="paint1_linear_15_175" x1="46.2806" y1="12.9786" x2="25.891" y2="31.9712" gradientUnits="userSpaceOnUse">
<stop stop-color="white"/>
<stop offset="1" stop-color="#A6BBFF"/>
</linearGradient>
<linearGradient id="paint2_linear_15_175" x1="40.56" y1="23.2969" x2="32.1381" y2="30.6306" gradientUnits="userSpaceOnUse">
<stop stop-color="white"/>
<stop offset="1" stop-color="#A6BBFF"/>
</linearGradient>
<linearGradient id="paint3_linear_15_175" x1="30.8258" y1="40.973" x2="30.4109" y2="43.2928" gradientUnits="userSpaceOnUse">
<stop stop-color="white"/>
<stop offset="1" stop-color="#A6BBFF"/>
</linearGradient>
<linearGradient id="paint4_linear_15_175" x1="48.3711" y1="40.973" x2="48.0994" y2="43.3358" gradientUnits="userSpaceOnUse">
<stop stop-color="white"/>
<stop offset="1" stop-color="#A6BBFF"/>
</linearGradient>
<linearGradient id="paint5_linear_15_175" x1="46.6098" y1="46.6944" x2="46.4353" y2="49.0757" gradientUnits="userSpaceOnUse">
<stop stop-color="white"/>
<stop offset="1" stop-color="#A6BBFF"/>
</linearGradient>
<linearGradient id="paint6_linear_15_175" x1="34.9162" y1="52.412" x2="34.4815" y2="54.7243" gradientUnits="userSpaceOnUse">
<stop stop-color="white"/>
<stop offset="1" stop-color="#A6BBFF"/>
</linearGradient>
<linearGradient id="paint7_linear_15_175" x1="46.5739" y1="58.1332" x2="46.4005" y2="60.5146" gradientUnits="userSpaceOnUse">
<stop stop-color="white"/>
<stop offset="1" stop-color="#A6BBFF"/>
</linearGradient>
<linearGradient id="paint8_linear_15_175" x1="48.8826" y1="52.4131" x2="48.5592" y2="54.7626" gradientUnits="userSpaceOnUse">
<stop stop-color="white"/>
<stop offset="1" stop-color="#A6BBFF"/>
</linearGradient>
<linearGradient id="paint9_linear_15_175" x1="20.894" y1="40.2624" x2="1.90441" y2="55.3471" gradientUnits="userSpaceOnUse">
<stop stop-color="white"/>
<stop offset="1" stop-color="#A6BBFF"/>
</linearGradient>
<linearGradient id="paint10_linear_15_175" x1="17.4064" y1="45.8736" x2="7.38662" y2="53.8326" gradientUnits="userSpaceOnUse">
<stop stop-color="white"/>
<stop offset="1" stop-color="#A6BBFF"/>
</linearGradient>
<linearGradient id="paint11_linear_15_175" x1="19.6302" y1="54.2355" x2="15.662" y2="57.3876" gradientUnits="userSpaceOnUse">
<stop stop-color="white"/>
<stop offset="1" stop-color="#A6BBFF"/>
</linearGradient>
<linearGradient id="paint12_linear_15_175" x1="10.4769" y1="45.0822" x2="6.50866" y2="48.2343" gradientUnits="userSpaceOnUse">
<stop stop-color="white"/>
<stop offset="1" stop-color="#A6BBFF"/>
</linearGradient>
</defs>
</svg>
