<svg width="41" height="41" viewBox="0 0 41 41" fill="none" xmlns="http://www.w3.org/2000/svg">
<g clip-path="url(#clip0_89_324)">
<path d="M17.1938 24.744C17.1963 24.7442 17.1986 24.7449 17.2011 24.7449C17.2061 24.7451 17.2111 24.747 17.2161 24.747C17.2162 24.747 17.2164 24.7469 17.2166 24.7469C17.2168 24.7469 17.217 24.747 17.2171 24.747C17.2204 24.747 17.2235 24.7457 17.2267 24.7457C17.2398 24.7458 17.2525 24.7477 17.2656 24.7477H17.2657H17.2658H17.2659C21.245 24.7477 24.4822 21.5105 24.4822 17.5312C24.4822 13.5519 21.245 10.3147 17.2659 10.3147C17.2584 10.3147 17.2511 10.3158 17.2436 10.3159C17.2346 10.3154 17.2256 10.3167 17.2165 10.3167C17.1991 10.3168 17.1819 10.3177 17.1646 10.3194C17.1547 10.3203 17.1447 10.3199 17.1348 10.3213C13.2165 10.3923 10.0494 13.5961 10.0494 17.5312C10.0494 21.4861 13.2481 24.7047 17.1938 24.744ZM11.6525 19.9984H13.2921C13.673 21.2418 14.338 22.3775 15.2469 23.3183C13.6393 22.7556 12.3354 21.5458 11.6525 19.9984ZM23.4011 17.5311C23.4011 18.0084 23.3409 18.471 23.2373 18.9173H21.3914C21.4671 18.4602 21.51 17.9934 21.51 17.5177C21.51 17.052 21.468 16.5942 21.394 16.1453H23.2375C23.341 16.5915 23.4011 17.054 23.4011 17.5311ZM20.4289 17.5445C20.4289 18.0115 20.3842 18.4705 20.299 18.9174H17.8062V16.1454H20.2967C20.3836 16.5999 20.4289 17.0677 20.4289 17.5445ZM14.4342 19.9984H16.7252V23.2038C15.6661 22.3577 14.8822 21.2503 14.4342 19.9984ZM17.8062 23.1206V19.9983H20.0019C19.5686 21.2077 18.817 22.284 17.8062 23.1206ZM17.8062 15.0643V11.9418C18.8149 12.7769 19.5654 13.852 19.9992 15.0643H17.8062ZM16.7252 11.8585V15.0643H14.4312C14.8787 13.8152 15.6637 12.7061 16.7252 11.8585ZM16.7252 16.1453V18.9173H14.1364C14.0495 18.4626 14.0042 17.9947 14.0042 17.5177C14.0042 17.051 14.0489 16.592 14.134 16.1453H16.7252ZM13.0393 18.9173H11.2943C11.1907 18.471 11.1304 18.0084 11.1304 17.5311C11.1304 17.0539 11.1906 16.5914 11.2942 16.1453H13.0418C12.9662 16.6022 12.9232 17.069 12.9232 17.5445C12.9232 18.0103 12.9654 18.4684 13.0393 18.9173ZM19.1261 23.3764C20.0625 22.4257 20.7486 21.2709 21.1381 19.9983H22.879C22.1736 21.597 20.8073 22.84 19.1261 23.3764ZM22.8792 15.0643H21.1411C20.7523 13.7945 20.0654 12.6385 19.1268 11.6861C20.8079 12.2226 22.1739 13.4656 22.8792 15.0643ZM15.2475 11.7438C14.3405 12.6831 13.6764 13.818 13.295 15.0643H11.6524C12.3353 13.5165 13.6395 12.3065 15.2475 11.7438ZM36.2943 7.55431C35.9239 6.83642 35.2986 6.30681 34.5336 6.06259L17.4309 0.601813C16.6662 0.356891 15.8494 0.426579 15.1316 0.797438C14.4139 1.16767 13.8841 1.79298 13.6399 2.55798L12.5048 6.11259H8.28918C6.62574 6.11259 5.27246 7.46603 5.27246 9.12947V37.4415C5.27246 39.1049 6.62574 40.458 8.28918 40.458H26.2424C27.9058 40.458 29.2591 39.1049 29.2591 37.4415V32.4999L36.4898 9.85369C36.734 9.089 36.6647 8.2722 36.2943 7.55431ZM28.178 37.4415C28.178 38.5088 27.3096 39.377 26.2424 39.377H8.28918C7.22184 39.377 6.35355 38.5088 6.35355 37.4415V9.12947C6.35355 8.06213 7.22191 7.19369 8.28918 7.19369H26.2424C27.3097 7.19369 28.178 8.0622 28.178 9.12947V37.4415ZM35.4601 9.52502L29.2591 28.9463V9.12947C29.2591 7.46603 27.9058 6.11259 26.2424 6.11259H13.6393L14.6695 2.88673C14.8259 2.39689 15.1661 1.99603 15.6272 1.75783C16.0882 1.51994 16.6118 1.47525 17.1022 1.6315L34.2049 7.09236C34.6947 7.24892 35.0957 7.58892 35.3336 8.05025C35.5715 8.51119 35.6165 9.03517 35.4601 9.52502ZM24.5569 28.9265C24.5569 29.2249 24.315 29.467 24.0164 29.467H10.515C10.2164 29.467 9.97441 29.2249 9.97441 28.9265C9.97441 28.6281 10.2164 28.386 10.515 28.386H24.0164C24.315 28.386 24.5569 28.6281 24.5569 28.9265ZM24.5569 32.7421C24.5569 33.0406 24.315 33.2827 24.0164 33.2827H10.515C10.2164 33.2827 9.97441 33.0406 9.97441 32.7421C9.97441 32.4437 10.2164 32.2016 10.515 32.2016H24.0164C24.315 32.2017 24.5569 32.4438 24.5569 32.7421ZM21.4946 36.5578C21.4946 36.8563 21.2527 37.0984 20.9541 37.0984H13.5773C13.2787 37.0984 13.0368 36.8563 13.0368 36.5578C13.0368 36.2594 13.2787 36.0173 13.5773 36.0173H20.9541C21.2528 36.0173 21.4946 36.2594 21.4946 36.5578Z" fill="#2A3F85"/>
</g>
<defs>
<clipPath id="clip0_89_324">
<rect width="40" height="40" fill="white" transform="translate(0.953125 0.458008)"/>
</clipPath>
</defs>
</svg>
