<svg width="51" height="51" viewBox="0 0 51 51" fill="none" xmlns="http://www.w3.org/2000/svg">
<g id="passport (2) 1" clip-path="url(#clip0_386_2746)">
<g id="Group">
<g id="Group_2">
<g id="Group_3">
<path id="Vector" d="M35.9156 38.3927L15.0792 38.3896C14.5045 38.3896 14.0375 38.8556 14.0375 39.4313C14.0375 40.006 14.5035 40.473 15.0792 40.473L35.9156 40.4761C36.4903 40.4761 36.9573 40.0101 36.9573 39.4344C36.9572 38.8596 36.4914 38.3927 35.9156 38.3927Z" fill="url(#paint0_linear_386_2746)"/>
<path id="Vector_2" d="M31.7459 42.5591H19.2459C18.6701 42.5591 18.2042 43.025 18.2042 43.6008C18.2042 44.1766 18.6701 44.6425 19.2459 44.6425H31.7459C32.3216 44.6425 32.7876 44.1766 32.7876 43.6008C32.7875 43.0249 32.3216 42.5591 31.7459 42.5591Z" fill="url(#paint1_linear_386_2746)"/>
<path id="Vector_3" d="M25.736 13.3345C19.4178 13.3345 14.2777 18.4746 14.2777 24.7927C14.2777 31.1109 19.4178 36.251 25.736 36.251C32.0541 36.251 37.1942 31.1109 37.1942 24.7927C37.1942 18.4746 32.0541 13.3345 25.736 13.3345ZM16.4663 25.8344H20.549C20.6643 28.6719 21.2503 31.4938 22.2676 33.485C19.1261 32.2269 16.8581 29.3171 16.4663 25.8344ZM20.5491 23.7511H16.4664C16.8582 20.2684 19.1262 17.3588 22.2677 16.1006C21.2504 18.0918 20.6644 20.9136 20.5491 23.7511ZM25.736 34.1678C24.5425 34.1678 22.864 30.9406 22.6527 25.8345H28.8193C28.6079 30.9406 26.9294 34.1678 25.736 34.1678ZM22.6527 23.7511C22.864 18.6451 24.5425 15.4179 25.736 15.4179C26.9294 15.4179 28.6079 18.6451 28.8193 23.7511H22.6527ZM29.2043 33.4851C30.2216 31.4938 30.8076 28.672 30.923 25.8345H35.0057C34.6139 29.3171 32.3458 32.2269 29.2043 33.4851ZM30.923 23.7511C30.8076 20.9136 30.2216 18.0918 29.2043 16.1006C32.3458 17.3588 34.614 20.2685 35.0057 23.7511H30.923Z" fill="url(#paint2_linear_386_2746)"/>
<path id="Vector_4" d="M40.3192 7.08466H38.2359V4.93213C38.2359 2.65616 36.31 0.811735 34.0692 0.834685C33.7491 0.838005 33.4689 0.882341 33.1385 0.965934L10.9296 7.10722C8.73699 7.22597 6.98602 9.02987 6.98602 11.2513V46.6679C6.98602 48.9658 8.85467 50.8346 11.1527 50.8346H40.3193C42.6172 50.8346 44.486 48.9659 44.486 46.6679V11.2513C44.4859 8.9534 42.6172 7.08466 40.3192 7.08466ZM33.6735 2.97901C34.8891 2.66876 36.1525 3.65342 36.1525 4.93213V7.08466H18.8276L33.6735 2.97901ZM42.4026 46.6679C42.4026 47.8163 41.4677 48.7512 40.3193 48.7512H11.1527C10.0043 48.7512 9.06941 47.8163 9.06941 46.6679V11.2513C9.06941 10.1029 10.0043 9.16805 11.1527 9.16805H40.3193C41.4677 9.16805 42.4026 10.1029 42.4026 11.2513V46.6679Z" fill="url(#paint3_linear_386_2746)"/>
</g>
</g>
</g>
</g>
<defs>
<linearGradient id="paint0_linear_386_2746" x1="33.6533" y1="38.9302" x2="32.3784" y2="43.825" gradientUnits="userSpaceOnUse">
<stop stop-color="white"/>
<stop offset="1" stop-color="#B8C9FF"/>
</linearGradient>
<linearGradient id="paint1_linear_386_2746" x1="30.6853" y1="43.0989" x2="28.8573" y2="47.571" gradientUnits="userSpaceOnUse">
<stop stop-color="white"/>
<stop offset="1" stop-color="#B8C9FF"/>
</linearGradient>
<linearGradient id="paint2_linear_386_2746" x1="33.8907" y1="19.2721" x2="16.0098" y2="25.5216" gradientUnits="userSpaceOnUse">
<stop stop-color="white"/>
<stop offset="1" stop-color="#B8C9FF"/>
</linearGradient>
<linearGradient id="paint3_linear_386_2746" x1="39.0802" y1="13.7894" x2="8.35725" y2="21.8428" gradientUnits="userSpaceOnUse">
<stop stop-color="white"/>
<stop offset="1" stop-color="#B8C9FF"/>
</linearGradient>
<clipPath id="clip0_386_2746">
<rect width="50" height="50" fill="white" transform="translate(0.735962 0.834473)"/>
</clipPath>
</defs>
</svg>
