<svg width="26" height="27" viewBox="0 0 26 27" fill="none" xmlns="http://www.w3.org/2000/svg">
<path id="Vector" d="M23.1423 17.9137L21.1996 15.9725C20.6851 15.4583 19.9874 15.1695 19.26 15.1695C18.5326 15.1695 17.8349 15.4583 17.3204 15.9725L16.3498 16.9431C16.0954 17.1982 15.7931 17.4007 15.4602 17.5388C15.1274 17.677 14.7706 17.7481 14.4102 17.7481C14.0499 17.7481 13.6931 17.677 13.3603 17.5388C13.0274 17.4007 12.7251 17.1982 12.4707 16.9431L9.5605 14.0297C9.04612 13.5147 8.75721 12.8165 8.75721 12.0886C8.75721 11.3606 9.04612 10.6625 9.5605 10.1474L10.5295 9.17682C11.0439 8.66175 11.3328 7.96358 11.3328 7.23565C11.3328 6.50772 11.0439 5.80956 10.5295 5.29449L8.5915 3.35332C8.35371 3.07031 8.05687 2.84276 7.7218 2.68665C7.38673 2.53054 7.02156 2.44965 6.65192 2.44965C6.28227 2.44965 5.9171 2.53054 5.58203 2.68665C5.24696 2.84276 4.95012 3.07031 4.71233 3.35332C-0.390752 8.41999 2.0175 14.272 7.11741 19.3719C12.2173 24.4718 18.0646 26.8848 23.1408 21.8023C23.4254 21.5646 23.6544 21.2672 23.8115 20.9312C23.9687 20.5953 24.0501 20.2289 24.0501 19.858C24.0501 19.4871 23.9687 19.1207 23.8115 18.7847C23.6544 18.4488 23.427 18.1514 23.1423 17.9137Z" stroke="white" stroke-width="3" stroke-linecap="round" stroke-linejoin="round"/>
</svg>
