<svg width="47" height="47" viewBox="0 0 47 47" fill="none" xmlns="http://www.w3.org/2000/svg">
<g id="rua-augusta-arch 1">
<path id="Vector" d="M45.2208 18.5947H39.7008L35.1583 15.3503V14.2822H35.877C36.0677 14.2822 36.2505 14.2065 36.3853 14.0717C36.5201 13.9369 36.5958 13.7541 36.5958 13.5635V10.6885C36.5958 10.4979 36.5201 10.315 36.3853 10.1802C36.2505 10.0455 36.0677 9.96973 35.877 9.96973H35.4559L31.5645 6.07841V4.93848C31.5645 4.3666 31.3374 3.81815 30.933 3.41378C30.5286 3.0094 29.9802 2.78223 29.4083 2.78223C28.8364 2.78223 28.288 3.0094 27.8836 3.41378C27.4792 3.81815 27.252 4.3666 27.252 4.93848V5.65723H25.8145V3.50098C25.8145 2.9291 25.5874 2.38065 25.183 1.97628C24.7786 1.5719 24.2302 1.34473 23.6583 1.34473C23.0864 1.34473 22.538 1.5719 22.1336 1.97628C21.7292 2.38065 21.502 2.9291 21.502 3.50098V5.65723H20.0645V4.93848C20.0645 4.3666 19.8374 3.81815 19.433 3.41378C19.0286 3.0094 18.4802 2.78223 17.9083 2.78223C17.3364 2.78223 16.788 3.0094 16.3836 3.41378C15.9792 3.81815 15.752 4.3666 15.752 4.93848V6.07841L11.8607 9.96973H11.4395C11.2489 9.96973 11.0661 10.0455 10.9313 10.1802C10.7965 10.315 10.7208 10.4979 10.7208 10.6885V13.5635C10.7208 13.7541 10.7965 13.9369 10.9313 14.0717C11.0661 14.2065 11.2489 14.2822 11.4395 14.2822H12.1583V15.3503L7.6158 18.5947H2.09579C1.90517 18.5947 1.72235 18.6705 1.58756 18.8052C1.45277 18.94 1.37704 19.1229 1.37704 19.3135V22.1885C1.37704 22.3791 1.45277 22.5619 1.58756 22.6967C1.72235 22.8315 1.90517 22.9072 2.09579 22.9072H3.53329V45.1885C3.53329 45.3791 3.60902 45.5619 3.74381 45.6967C3.8786 45.8315 4.06142 45.9072 4.25204 45.9072H43.0645C43.2552 45.9072 43.438 45.8315 43.5728 45.6967C43.7076 45.5619 43.7833 45.3791 43.7833 45.1885V22.9072H45.2208C45.4114 22.9072 45.5942 22.8315 45.729 22.6967C45.8638 22.5619 45.9395 22.3791 45.9395 22.1885V19.3135C45.9395 19.1229 45.8638 18.94 45.729 18.8052C45.5942 18.6705 45.4114 18.5947 45.2208 18.5947ZM37.2283 18.5947H35.1583V17.1163L37.2283 18.5947ZM17.9083 35.8447V37.2822H13.5958V35.8447H17.9083ZM13.5958 38.7197H16.4708V44.4697H13.5958V38.7197ZM17.9083 38.7197H18.627C18.8177 38.7197 19.0005 38.644 19.1353 38.5092C19.2701 38.3744 19.3458 38.1916 19.3458 38.001V35.126C19.3458 34.9354 19.2701 34.7525 19.1353 34.6177C19.0005 34.483 18.8177 34.4072 18.627 34.4072H17.9083V32.9697C17.9083 31.4447 18.5141 29.9822 19.5924 28.9039C20.6708 27.8255 22.1333 27.2197 23.6583 27.2197C25.1833 27.2197 26.6458 27.8255 27.7242 28.9039C28.8025 29.9822 29.4083 31.4447 29.4083 32.9697V34.4072H28.6895C28.4989 34.4072 28.3161 34.483 28.1813 34.6177C28.0465 34.7525 27.9708 34.9354 27.9708 35.126V38.001C27.9708 38.1916 28.0465 38.3744 28.1813 38.5092C28.3161 38.644 28.4989 38.7197 28.6895 38.7197H29.4083V44.4697H17.9083V38.7197ZM29.4083 14.2822V15.7197H17.9083V14.2822H29.4083ZM17.9083 17.1572H29.4083V28.6759C28.7423 27.7782 27.8754 27.0488 26.8769 26.5463C25.8784 26.0438 24.7761 25.7821 23.6583 25.7821C22.5405 25.7821 21.4382 26.0438 20.4397 26.5463C19.4412 27.0488 18.5743 27.7782 17.9083 28.6759V17.1572ZM33.7208 37.2822H29.4083V35.8447H33.7208V37.2822ZM30.8458 38.7197H33.7208V44.4697H30.8458V38.7197ZM33.7208 34.4072H30.8458V14.2822H33.7208V34.4072ZM35.1583 12.8447H12.1583V11.4072H35.1583V12.8447ZM28.6895 4.93848C28.6895 4.74785 28.7653 4.56504 28.9001 4.43024C29.0349 4.29545 29.2177 4.21973 29.4083 4.21973C29.5989 4.21973 29.7817 4.29545 29.9165 4.43024C30.0513 4.56504 30.127 4.74785 30.127 4.93848V5.65723H28.6895V4.93848ZM22.9395 3.50098C22.9395 3.31035 23.0153 3.12754 23.1501 2.99274C23.2849 2.85795 23.4677 2.78223 23.6583 2.78223C23.8489 2.78223 24.0317 2.85795 24.1665 2.99274C24.3013 3.12754 24.377 3.31035 24.377 3.50098V5.65723H22.9395V3.50098ZM17.9083 4.21973C18.0989 4.21973 18.2817 4.29545 18.4165 4.43024C18.5513 4.56504 18.627 4.74785 18.627 4.93848V5.65723H17.1895V4.93848C17.1895 4.74785 17.2653 4.56504 17.4001 4.43024C17.5349 4.29545 17.7177 4.21973 17.9083 4.21973ZM16.7684 7.09473H30.5482L33.4232 9.96973H13.8934L16.7684 7.09473ZM16.4708 14.2822V34.4072H13.5958V14.2822H16.4708ZM12.1583 17.1163V18.5947H10.0883L12.1583 17.1163ZM2.81454 20.0322H12.1583V21.4697H2.81454V20.0322ZM12.1583 22.9072V30.0947H4.97079V22.9072H12.1583ZM4.97079 31.5322H12.1583V44.4697H10.7208V36.5635C10.7208 35.9916 10.4936 35.4432 10.0892 35.0388C9.68487 34.6344 9.13642 34.4072 8.56454 34.4072C7.99267 34.4072 7.44422 34.6344 7.03985 35.0388C6.63547 35.4432 6.40829 35.9916 6.40829 36.5635V44.4697H4.97079V31.5322ZM9.28329 44.4697H7.84579V36.5635C7.84579 36.3729 7.92152 36.19 8.05631 36.0552C8.1911 35.9205 8.37392 35.8447 8.56454 35.8447C8.75517 35.8447 8.93799 35.9205 9.07278 36.0552C9.20757 36.19 9.28329 36.3729 9.28329 36.5635V44.4697ZM39.4708 44.4697H38.0333V36.5635C38.0333 36.3729 38.109 36.19 38.2438 36.0552C38.3786 35.9205 38.5614 35.8447 38.752 35.8447C38.9427 35.8447 39.1255 35.9205 39.2603 36.0552C39.3951 36.19 39.4708 36.3729 39.4708 36.5635V44.4697ZM40.9083 44.4697V36.5635C40.9083 35.9916 40.6811 35.4432 40.2767 35.0388C39.8724 34.6344 39.3239 34.4072 38.752 34.4072C38.1802 34.4072 37.6317 34.6344 37.2273 35.0388C36.823 35.4432 36.5958 35.9916 36.5958 36.5635V44.4697H35.1583V31.5322H42.3458V44.4697H40.9083ZM42.3458 30.0947H35.1583V22.9072H42.3458V30.0947ZM44.502 21.4697H35.1583V20.0322H44.502V21.4697Z" fill="white"/>
<path id="Vector_2" d="M23.6583 24.3447C24.2269 24.3447 24.7828 24.1761 25.2556 23.8602C25.7284 23.5443 26.0968 23.0953 26.3144 22.5699C26.5321 22.0446 26.589 21.4665 26.4781 20.9088C26.3671 20.3511 26.0933 19.8389 25.6912 19.4368C25.2892 19.0347 24.7769 18.7609 24.2192 18.65C23.6615 18.539 23.0834 18.596 22.5581 18.8136C22.0327 19.0312 21.5837 19.3997 21.2678 19.8725C20.9519 20.3453 20.7833 20.9011 20.7833 21.4697C20.7833 22.2322 21.0862 22.9635 21.6254 23.5027C22.1645 24.0418 22.8958 24.3447 23.6583 24.3447ZM23.6583 20.0322C23.9426 20.0322 24.2205 20.1165 24.4569 20.2745C24.6933 20.4324 24.8776 20.657 24.9864 20.9196C25.0952 21.1823 25.1236 21.4713 25.0682 21.7502C25.0127 22.029 24.8758 22.2852 24.6748 22.4862C24.4737 22.6872 24.2176 22.8241 23.9387 22.8796C23.6599 22.9351 23.3709 22.9066 23.1082 22.7978C22.8455 22.689 22.621 22.5048 22.4631 22.2684C22.3051 22.032 22.2208 21.754 22.2208 21.4697C22.2208 21.0885 22.3722 20.7228 22.6418 20.4533C22.9114 20.1837 23.277 20.0322 23.6583 20.0322Z" fill="white"/>
<path id="Vector_3" d="M7.12704 28.6572H10.002C10.1927 28.6572 10.3755 28.5815 10.5103 28.4467C10.6451 28.3119 10.7208 28.1291 10.7208 27.9385V26.501C10.7208 25.9291 10.4936 25.3807 10.0892 24.9763C9.68487 24.5719 9.13642 24.3447 8.56454 24.3447C7.99267 24.3447 7.44422 24.5719 7.03985 24.9763C6.63547 25.3807 6.40829 25.9291 6.40829 26.501V27.9385C6.40829 28.1291 6.48402 28.3119 6.61881 28.4467C6.7536 28.5815 6.93642 28.6572 7.12704 28.6572ZM7.84579 26.501C7.84579 26.3104 7.92152 26.1275 8.05631 25.9927C8.1911 25.858 8.37392 25.7822 8.56454 25.7822C8.75517 25.7822 8.93799 25.858 9.07278 25.9927C9.20757 26.1275 9.28329 26.3104 9.28329 26.501V27.2197H7.84579V26.501Z" fill="white"/>
<path id="Vector_4" d="M37.3145 28.6572H40.1895C40.3802 28.6572 40.563 28.5815 40.6978 28.4467C40.8326 28.3119 40.9083 28.1291 40.9083 27.9385V26.501C40.9083 25.9291 40.6811 25.3807 40.2767 24.9763C39.8724 24.5719 39.3239 24.3447 38.752 24.3447C38.1802 24.3447 37.6317 24.5719 37.2273 24.9763C36.823 25.3807 36.5958 25.9291 36.5958 26.501V27.9385C36.5958 28.1291 36.6715 28.3119 36.8063 28.4467C36.9411 28.5815 37.1239 28.6572 37.3145 28.6572ZM38.0333 26.501C38.0333 26.3104 38.109 26.1275 38.2438 25.9927C38.3786 25.858 38.5614 25.7822 38.752 25.7822C38.9427 25.7822 39.1255 25.858 39.2603 25.9927C39.3951 26.1275 39.4708 26.3104 39.4708 26.501V27.2197H38.0333V26.501Z" fill="white"/>
</g>
</svg>
