<svg width="51" height="51" viewBox="0 0 51 51" fill="none" xmlns="http://www.w3.org/2000/svg">
<g id="review 3">
<g id="Group">
<path id="Vector" fill-rule="evenodd" clip-rule="evenodd" d="M44.0088 24.4472C43.5839 24.5189 43.297 24.9218 43.3687 25.3475C43.5381 26.3484 43.6235 27.3555 43.6235 28.3428C43.6235 33.8494 41.1692 38.8198 37.2147 42.1294C36.524 37.6451 33.3403 34.0485 29.1125 32.7614C30.7934 31.6402 31.9048 29.7298 31.9048 27.5615C31.9048 24.1146 29.101 21.3115 25.6548 21.3115C22.2086 21.3115 19.4048 24.1146 19.4048 27.5615C19.4048 29.7298 20.5162 31.6402 22.197 32.7614C17.9693 34.0485 14.7856 37.6451 14.0949 42.1294C10.1404 38.8198 7.68604 33.8494 7.68604 28.3428C7.68604 27.3555 7.77148 26.3484 7.94086 25.3475C8.01257 24.9218 7.72571 24.5189 7.30075 24.4472C6.86588 24.374 6.4722 24.6624 6.39972 25.0881C6.21661 26.173 6.12354 27.2686 6.12354 28.3428C6.12354 37.9375 12.9763 46.0353 22.4176 47.5978C22.4604 47.6055 22.5038 47.6085 22.5458 47.6085C22.9212 47.6085 23.2523 47.3369 23.3156 46.9554C23.3866 46.5297 23.0982 46.1269 22.6725 46.0567C20.0398 45.621 17.6314 44.6256 15.5457 43.2137C15.9226 37.9118 20.28 33.8115 25.6548 33.8115C31.0296 33.8115 35.3869 37.9118 35.7638 43.2137C33.6781 44.6256 31.2697 45.621 28.6371 46.0567C28.2114 46.1269 27.923 46.5297 27.994 46.9554C28.0573 47.3369 28.3884 47.6085 28.7638 47.6085C28.8057 47.6085 28.8492 47.6055 28.8919 47.5978C38.3333 46.0353 45.186 37.9375 45.186 28.3428C45.186 27.2686 45.093 26.173 44.9099 25.0881C44.8374 24.6624 44.4391 24.3724 44.0088 24.4472ZM20.9673 27.5615C20.9673 24.9767 23.0699 22.874 25.6548 22.874C28.2396 22.874 30.3423 24.9767 30.3423 27.5615C30.3423 30.1464 28.2396 32.249 25.6548 32.249C23.0699 32.249 20.9673 30.1464 20.9673 27.5615Z" fill="url(#paint0_linear_28_123)"/>
<path id="Vector_2" fill-rule="evenodd" clip-rule="evenodd" d="M34.2104 8.77795C34.1181 8.49414 33.874 8.28815 33.5795 8.24542L28.5876 7.52063L26.3552 2.9964C26.0927 2.46539 25.2169 2.46539 24.9544 2.9964L22.7221 7.52063L17.7302 8.24542C17.4357 8.28815 17.1915 8.49414 17.0992 8.77795C17.0077 9.06024 17.084 9.37152 17.2968 9.57904L20.9093 13.0992L20.0564 18.0706C20.006 18.3651 20.1266 18.6611 20.3669 18.835C20.6087 19.0105 20.9269 19.0364 21.1901 18.8945L25.6548 16.5462L30.1195 18.8945C30.234 18.9556 30.3591 18.9846 30.4835 18.9846C30.6452 18.9846 30.8062 18.9342 30.9427 18.835C31.1831 18.6611 31.3036 18.3651 31.2533 18.0706L30.4003 13.0992L34.0128 9.57904C34.2257 9.37152 34.302 9.06024 34.2104 8.77795ZM29.0156 12.2661C28.8317 12.4462 28.7478 12.704 28.7913 12.9589L29.4459 16.7751L26.0187 14.973C25.9043 14.9135 25.7799 14.883 25.6548 14.883C25.5297 14.883 25.4053 14.9135 25.2909 14.973L21.8638 16.7751L22.5184 12.9589C22.5619 12.704 22.4779 12.4462 22.2941 12.2661L19.5215 9.56531L23.353 9.00836C23.6078 8.97021 23.8276 8.81152 23.9413 8.58112L25.6548 5.10822L27.3684 8.58112C27.4821 8.81152 27.7018 8.97021 27.9566 9.00836L31.7881 9.56531L29.0156 12.2661Z" fill="url(#paint1_linear_28_123)"/>
<path id="Vector_3" fill-rule="evenodd" clip-rule="evenodd" d="M6.95974 21.3481C6.90939 21.6426 7.02993 21.9387 7.27026 22.1126C7.51288 22.2881 7.83178 22.3125 8.09347 22.1721L11.5923 20.3319L15.0912 22.1721C15.2056 22.2332 15.3307 22.2621 15.4551 22.2621C15.6168 22.2621 15.7778 22.2118 15.9144 22.1126C16.1547 21.9387 16.2752 21.6426 16.2249 21.3481L15.5565 17.4526L18.3878 14.6938C18.6007 14.4863 18.677 14.175 18.5854 13.8927C18.4931 13.6089 18.249 13.4029 17.9545 13.3602L14.0421 12.7925L12.2927 9.2464C12.0302 8.71539 11.1544 8.71539 10.8919 9.2464L9.14251 12.7925L5.23016 13.3602C4.93567 13.4029 4.69153 13.6089 4.59921 13.8927C4.50766 14.175 4.58395 14.4863 4.79681 14.6938L7.62808 17.4526L6.95974 21.3481ZM7.02154 14.6801L9.77347 14.2803C10.0283 14.2421 10.248 14.0834 10.3617 13.853L11.5923 11.3582L12.8229 13.853C12.9366 14.0834 13.1563 14.2421 13.4112 14.2803L16.1631 14.6801L14.1718 16.6194C13.9879 16.7995 13.904 17.0574 13.9475 17.3122L14.4175 20.0527L11.9562 18.7587C11.8418 18.6992 11.7174 18.6687 11.5923 18.6687C11.4672 18.6687 11.3428 18.6992 11.2284 18.7587L8.76715 20.0527L9.23712 17.3122C9.28061 17.0574 9.19668 16.7995 9.01281 16.6194L7.02154 14.6801Z" fill="url(#paint2_linear_28_123)"/>
<path id="Vector_4" fill-rule="evenodd" clip-rule="evenodd" d="M46.0795 13.3602L42.1671 12.7925L40.4177 9.2464C40.1552 8.71539 39.2794 8.71539 39.0169 9.2464L37.2675 12.7925L33.3552 13.3602C33.0607 13.4029 32.8165 13.6089 32.7242 13.8927C32.6327 14.175 32.709 14.4863 32.9218 14.6938L35.7531 17.4526L35.0847 21.3481C35.0344 21.6426 35.1549 21.9387 35.3953 22.1126C35.6371 22.2881 35.9553 22.3125 36.2185 22.1721L39.7173 20.3319L43.2162 22.1721C43.3306 22.2332 43.4557 22.2621 43.5801 22.2621C43.7418 22.2621 43.9028 22.2118 44.0394 22.1126C44.2797 21.9387 44.4002 21.6426 44.3499 21.3481L43.6815 17.4526L46.5128 14.6938C46.7257 14.4863 46.802 14.175 46.7104 13.8927C46.6181 13.6089 46.374 13.4029 46.0795 13.3602ZM42.2968 16.6194C42.1129 16.7995 42.029 17.0574 42.0725 17.3122L42.5425 20.0527L40.0812 18.7587C39.9668 18.6992 39.8424 18.6687 39.7173 18.6687C39.5922 18.6687 39.4678 18.6992 39.3534 18.7587L36.8921 20.0527L37.3621 17.3122C37.4056 17.0574 37.3217 16.7995 37.1378 16.6194L35.1465 14.6801L37.8985 14.2803C38.1533 14.2421 38.373 14.0834 38.4867 13.853L39.7173 11.3582L40.9479 13.853C41.0616 14.0834 41.2813 14.2421 41.5362 14.2803L44.2881 14.6801L42.2968 16.6194Z" fill="url(#paint3_linear_28_123)"/>
</g>
<path id="Vector_5" d="M25.6548 47.874C26.0863 47.874 26.436 47.5242 26.436 47.0928C26.436 46.6613 26.0863 46.3115 25.6548 46.3115C25.2233 46.3115 24.8735 46.6613 24.8735 47.0928C24.8735 47.5242 25.2233 47.874 25.6548 47.874Z" fill="white"/>
</g>
<defs>
<linearGradient id="paint0_linear_28_123" x1="6.63411" y1="37.466" x2="39.1881" y2="20.2684" gradientUnits="userSpaceOnUse">
<stop stop-color="#B8C9FF"/>
<stop offset="1" stop-color="white"/>
</linearGradient>
<linearGradient id="paint1_linear_28_123" x1="17.2857" y1="12.6653" x2="33.3693" y2="6.66627" gradientUnits="userSpaceOnUse">
<stop stop-color="#B8C9FF"/>
<stop offset="1" stop-color="white"/>
</linearGradient>
<linearGradient id="paint2_linear_28_123" x1="4.7449" y1="17.0889" x2="17.9057" y2="12.1825" gradientUnits="userSpaceOnUse">
<stop stop-color="#B8C9FF"/>
<stop offset="1" stop-color="white"/>
</linearGradient>
<linearGradient id="paint3_linear_28_123" x1="32.8699" y1="17.0889" x2="46.0307" y2="12.1825" gradientUnits="userSpaceOnUse">
<stop stop-color="#B8C9FF"/>
<stop offset="1" stop-color="white"/>
</linearGradient>
</defs>
</svg>
