<svg width="47" height="47" viewBox="0 0 47 47" fill="none" xmlns="http://www.w3.org/2000/svg">
<g id="sagrada-familia 1" clip-path="url(#clip0_48_168)">
<g id="Group">
<g id="Group_2">
<path id="Vector" d="M40.5765 12.0376C40.5316 11.7031 40.4868 11.3689 40.442 11.0347C40.994 10.5802 41.3467 9.89193 41.3467 9.12278C41.3467 7.7577 40.2362 6.64723 38.8711 6.64723C37.506 6.64723 36.3956 7.7577 36.3956 9.12278C36.3956 9.91565 36.7707 10.6222 37.3523 11.0755C37.2711 11.6797 37.1895 12.2839 37.1074 12.8888C36.9104 14.338 36.7117 15.802 36.524 17.2749C36.2008 13.512 35.6988 9.76723 35.2056 6.09757C35.1606 5.76263 35.1157 5.42787 35.0709 5.09312C35.6229 4.63869 35.9755 3.95049 35.9755 3.18134C35.9755 1.81652 34.8651 0.706055 33.5 0.706055C32.1349 0.706055 31.0244 1.81652 31.0244 3.1816C31.0244 3.97447 31.3995 4.681 31.9812 5.13436C31.9 5.73846 31.8184 6.34257 31.7363 6.94749C30.9438 12.7789 30.1243 18.8087 30.1243 24.7862V26.7624C29.2056 24.0038 27.8636 21.3004 26.0727 18.5777C25.7791 16.5263 25.4035 14.4539 25.0394 12.4481C24.637 10.2314 24.221 7.93927 23.9221 5.70055L23.8439 5.11477H22.647L22.5687 5.70055C22.2756 7.89615 21.8802 10.147 21.4981 12.3238C21.1466 14.3254 20.7842 16.3932 20.4962 18.4367C18.6233 21.2677 17.2423 24.0941 16.3214 27.0035V24.7863C16.3214 18.8086 15.5018 12.7785 14.7094 6.94695C14.6272 6.3423 14.5457 5.73828 14.4646 5.13444C15.0462 4.68109 15.4213 3.97456 15.4213 3.18178C15.4213 1.8167 14.3108 0.706234 12.9458 0.706234C11.5807 0.706234 10.4702 1.8167 10.4702 3.18178C10.4702 3.95094 10.8228 4.63923 11.3749 5.09366C11.3301 5.42805 11.2854 5.76254 11.2403 6.09721C10.747 9.76741 10.245 13.5126 9.92171 17.2761C9.73402 15.803 9.53547 14.3386 9.33835 12.8884C9.25614 12.2837 9.17466 11.6798 9.09353 11.0759C9.67517 10.6224 10.0503 9.91601 10.0503 9.12314C10.0503 7.75806 8.93981 6.64759 7.57472 6.64759C6.20964 6.64759 5.09908 7.75788 5.09908 9.12296C5.09908 9.89211 5.45172 10.5804 6.00372 11.0347C5.95888 11.3694 5.91405 11.7042 5.86904 12.0392C5.0476 18.1481 4.19867 24.465 4.19867 30.7276V46.661H5.54893V30.7276C5.54893 28.56 5.6544 26.38 5.82457 24.2012H9.31032C9.42712 25.6249 9.51453 27.0477 9.56089 28.4647C7.88621 31.9518 6.89919 34.549 6.89919 39.4595V46.661H8.24945V39.4595C8.24945 34.2 9.39935 31.8532 11.487 27.5928L11.6251 27.3109L11.7633 27.5928C13.889 31.9309 14.9108 34.2476 14.9108 39.4595V46.661H16.2611V39.4595V36.3709C16.2611 29.7864 18.2062 23.9714 22.3825 18.0709L23.2376 16.8629L24.0927 18.0709C28.3305 24.0582 30.3042 29.8731 30.3042 36.3709V39.4595V46.661H31.6544V39.4595C31.6544 34.2 32.8043 31.8532 34.8919 27.5928L35.0301 27.3109L35.1683 27.5928C37.2559 31.8532 38.4058 34.2 38.4058 39.4595V46.661H39.7561V39.4595C39.7561 34.3388 38.6827 31.7333 36.8754 28.0115V27.873L36.9048 27.8742C36.9541 26.6534 37.0331 25.4279 37.1337 24.2011H40.6206C40.7909 26.38 40.8963 28.5599 40.8963 30.7276V46.661H42.2465V30.7276C42.2468 24.4645 41.3978 18.147 40.5765 12.0376ZM7.57436 7.99776C8.19482 7.99776 8.69956 8.5025 8.69956 9.12296C8.69956 9.74342 8.19482 10.2482 7.57436 10.2482C6.9539 10.2482 6.44916 9.74342 6.44916 9.12296C6.44916 8.5025 6.9539 7.99776 7.57436 7.99776ZM5.93777 22.8509C6.25932 19.2774 6.73729 15.7139 7.20708 12.219C7.23565 12.0065 7.26395 11.7943 7.29252 11.5819C7.38515 11.5924 7.47904 11.5984 7.57445 11.5984C7.65055 11.5984 7.72557 11.5945 7.79987 11.5877C7.86644 12.0818 7.93293 12.5755 8.00013 13.07C8.43668 16.2829 8.88248 19.5644 9.19218 22.8509H5.93777ZM12.9455 2.0564C13.5659 2.0564 14.0707 2.56114 14.0707 3.1816C14.0707 3.80206 13.5659 4.30681 12.9455 4.30681C12.325 4.30681 11.8203 3.80206 11.8203 3.1816C11.8203 2.56114 12.3251 2.0564 12.9455 2.0564ZM12.5783 6.2769C12.6069 6.06469 12.6352 5.85274 12.6636 5.64062C12.7562 5.65113 12.8502 5.65715 12.9455 5.65715C13.0216 5.65715 13.0966 5.6532 13.171 5.64646C13.2377 6.14051 13.304 6.6342 13.3713 7.12879C13.8083 10.3451 14.2532 13.6222 14.5627 16.9096H11.3089C11.6304 13.3359 12.1085 9.77208 12.5783 6.2769ZM14.9709 31.446C14.4558 30.0553 13.7891 28.6582 12.9759 26.9986L11.6253 24.2421L10.9202 25.6812V24.7863C10.9202 22.6186 11.0257 20.4388 11.1959 18.2599H14.6817C14.8602 20.4388 14.971 22.6192 14.971 24.7863L14.9709 31.446ZM23.2378 14.5257L22.2496 15.9217C22.4359 14.7915 22.6334 13.6641 22.8278 12.5573C22.9689 11.7538 23.1117 10.9403 23.2507 10.1226C23.4013 10.9849 23.557 11.8425 23.7106 12.6893C23.9102 13.7889 24.1131 14.9088 24.304 16.0321L23.2378 14.5257ZM33.5 2.0564C34.1204 2.0564 34.6252 2.56114 34.6252 3.1816C34.6252 3.80206 34.1204 4.30681 33.5 4.30681C32.8795 4.30681 32.3748 3.80206 32.3748 3.1816C32.3748 2.56114 32.8794 2.0564 33.5 2.0564ZM33.0742 7.12951C33.1414 6.63474 33.2079 6.14078 33.2746 5.64655C33.3489 5.65329 33.424 5.65724 33.5 5.65724C33.5953 5.65724 33.6893 5.65131 33.7819 5.64071C33.8105 5.8531 33.8388 6.06531 33.8674 6.27779C34.3371 9.77271 34.8151 13.3362 35.1367 16.9097H31.8829C32.1923 13.6225 32.6371 10.3456 33.0742 7.12951ZM35.5254 25.2526L35.0303 24.2422L33.6797 26.9987C32.781 28.8327 32.0351 30.3564 31.4746 31.934V24.7864C31.4746 22.6193 31.5853 20.4388 31.7639 18.26H35.2498C35.42 20.4388 35.5254 22.6187 35.5254 24.7864V25.2526ZM38.8711 7.99776C39.4916 7.99776 39.9963 8.5025 39.9963 9.12296C39.9963 9.74342 39.4916 10.2482 38.8711 10.2482C38.2506 10.2482 37.7459 9.74342 37.7459 9.12296C37.7459 8.5025 38.2506 7.99776 38.8711 7.99776ZM37.2539 22.8509C37.5636 19.5657 38.0089 16.2821 38.4453 13.0709C38.5125 12.576 38.579 12.082 38.6457 11.5877C38.72 11.5945 38.795 11.5984 38.8711 11.5984C38.9664 11.5984 39.0604 11.5925 39.153 11.5819C39.1815 11.7938 39.2098 12.0055 39.2383 12.2174C39.7081 15.7128 40.1862 19.2768 40.5078 22.8509H37.2539Z" fill="white"/>
</g>
</g>
<g id="Group_3">
<g id="Group_4">
<path id="Vector_2" d="M23.8059 20.057L23.2374 19.176L22.6706 20.0581C19.1718 25.5026 17.6116 30.5339 17.6116 36.3711V37.0463H28.9541V36.3711C28.954 30.6075 27.3663 25.5762 23.8059 20.057ZM18.9692 35.6959C19.0792 30.7366 20.4144 26.3543 23.2399 21.6951C26.1206 26.4154 27.4823 30.7975 27.5959 35.6959H18.9692Z" fill="white"/>
</g>
</g>
<g id="Group_5">
<g id="Group_6">
<path id="Vector_3" d="M12.2407 31.8557L11.6231 30.3159L10.9899 31.8493C9.9766 34.3037 9.59988 36.3663 9.59988 39.4594V46.6611H10.9501V39.4595C10.9501 37.1318 11.1816 35.5542 11.6003 34.1394C12.0409 35.7046 12.2104 37.2817 12.2104 39.4595V46.6611H13.5606V39.4595C13.5606 36.3156 13.2029 34.2547 12.2407 31.8557Z" fill="white"/>
</g>
</g>
<g id="Group_7">
<g id="Group_8">
<path id="Vector_4" d="M35.6541 31.8213L35.0303 30.3154L34.4065 31.8213C33.3847 34.288 33.0048 36.3581 33.0048 39.4594V46.6609H34.355V39.4594C34.355 37.09 34.5956 35.4946 35.0302 34.0566C35.4647 35.4945 35.7054 37.0901 35.7054 39.4594V46.6609H37.0556V39.4594C37.0557 36.3581 36.6759 34.288 35.6541 31.8213Z" fill="white"/>
</g>
</g>
<g id="Group_9">
<g id="Group_10">
<path id="Vector_5" d="M25.6233 38.335C24.66 38.335 23.7992 38.7823 23.2378 39.4801C22.6763 38.7823 21.8156 38.335 20.8523 38.335C19.1645 38.335 17.7915 39.708 17.7915 41.3957V46.7061H28.6839V41.3957C28.6839 39.708 27.3108 38.335 25.6233 38.335ZM22.5626 45.3559H19.1419V41.3957C19.1419 40.4526 19.9092 39.6853 20.8523 39.6853C21.7953 39.6853 22.5626 40.4526 22.5626 41.3957V45.3559ZM27.3337 45.3559H23.913V41.3957C23.913 40.4526 24.6802 39.6853 25.6233 39.6853C26.5664 39.6853 27.3337 40.4526 27.3337 41.3957V45.3559Z" fill="white"/>
</g>
</g>
<g id="Group_11">
<g id="Group_12">
<path id="Vector_6" d="M39.5459 25.3264H38.1957V26.6767H39.5459V25.3264Z" fill="white"/>
</g>
</g>
<g id="Group_13">
<g id="Group_14">
<path id="Vector_7" d="M39.5459 28.0271H38.1957V29.3774H39.5459V28.0271Z" fill="white"/>
</g>
</g>
<g id="Group_15">
<g id="Group_16">
<path id="Vector_8" d="M34.1753 22.626H32.8251V23.9762H34.1753V22.626Z" fill="white"/>
</g>
</g>
<g id="Group_17">
<g id="Group_18">
<path id="Vector_9" d="M34.1753 19.9253H32.8251V21.2756H34.1753V19.9253Z" fill="white"/>
</g>
</g>
<g id="Group_19">
<g id="Group_20">
<path id="Vector_10" d="M8.24981 25.3264H6.89955V26.6767H8.24981V25.3264Z" fill="white"/>
</g>
</g>
<g id="Group_21">
<g id="Group_22">
<path id="Vector_11" d="M8.24981 28.0271H6.89955V29.3774H8.24981V28.0271Z" fill="white"/>
</g>
</g>
<g id="Group_23">
<g id="Group_24">
<path id="Vector_12" d="M13.6203 22.626H12.27V23.9762H13.6203V22.626Z" fill="white"/>
</g>
</g>
<g id="Group_25">
<g id="Group_26">
<path id="Vector_13" d="M13.6203 19.9253H12.27V21.2756H13.6203V19.9253Z" fill="white"/>
</g>
</g>
<g id="Group_27">
<g id="Group_28">
<path id="Vector_14" d="M23.9131 32.844H22.5629V34.1943H23.9131V32.844Z" fill="white"/>
</g>
</g>
<g id="Group_29">
<g id="Group_30">
<path id="Vector_15" d="M23.9131 25.8225H22.5629V28.7932H23.9131V25.8225Z" fill="white"/>
</g>
</g>
<g id="Group_31">
<g id="Group_32">
<path id="Vector_16" d="M23.9131 30.1433H22.5629V31.4936H23.9131V30.1433Z" fill="white"/>
</g>
</g>
</g>
<defs>
<clipPath id="clip0_48_168">
<rect width="46" height="46" fill="white" transform="translate(0.222733 0.706055)"/>
</clipPath>
</defs>
</svg>
