<svg width="37" height="37" viewBox="0 0 37 37" fill="none" xmlns="http://www.w3.org/2000/svg">
<g id="hugeicons:telegram">
<path id="Vector" d="M18.7134 24.0602L23.5764 29.5892C25.3764 31.6367 26.2779 32.6612 27.2214 32.4107C28.1634 32.1617 28.4874 30.8147 29.1339 28.1192L32.7189 13.1672C33.7164 9.01518 34.2144 6.94068 33.1074 5.91618C32.0004 4.89168 30.0819 5.65368 26.2449 7.17618L8.44594 14.2457C5.37694 15.4652 3.84244 16.0742 3.74494 17.1212C3.73346 17.2279 3.73346 17.3355 3.74494 17.4422C3.83944 18.4907 5.37094 19.1042 8.43694 20.3327C9.82444 20.8892 10.5189 21.1682 11.0169 21.7007C11.0729 21.7607 11.1269 21.8227 11.1789 21.8867C11.6379 22.4567 11.8329 23.2067 12.2244 24.7007L12.9579 27.5012C13.3374 28.9562 13.5279 29.6852 14.0274 29.7842C14.5269 29.8832 14.9604 29.2802 15.8289 28.0727L18.7134 24.0602ZM18.7134 24.0602L18.2379 23.5652C17.6949 22.9982 17.4234 22.7162 17.4234 22.3652C17.4234 22.0142 17.6934 21.7307 18.2379 21.1652L23.5974 15.5792" stroke="white" stroke-width="2.8" stroke-linecap="round" stroke-linejoin="round"/>
</g>
</svg>
