<svg width="39" height="50" viewBox="0 0 39 50" fill="none" xmlns="http://www.w3.org/2000/svg">
<path id="Vector" d="M36.7598 46.514H35.3259V39.2488C35.3259 38.7056 35.019 38.2092 34.5332 37.9662L29.5902 35.4946V27.7773C29.5902 27.2341 29.2833 26.7377 28.7975 26.4947L23.8544 24.0232V13.438C23.8544 13.2154 23.8026 12.9959 23.7031 12.7967L20.9866 7.36376V1.87094C20.9866 1.07903 20.3446 0.437012 19.5526 0.437012C18.7607 0.437012 18.1187 1.07903 18.1187 1.87094V7.10833L15.6709 9.55615C15.402 9.82515 15.2508 10.1898 15.2508 10.5701V15.7119L9.93517 21.0276C9.66626 21.2966 9.51512 21.6613 9.51512 22.0416V32.6268L4.57207 35.0983C4.08625 35.3413 3.77939 35.8377 3.77939 36.3809V46.514H2.34546C1.55355 46.514 0.91153 47.156 0.91153 47.9479C0.91153 48.7399 1.55355 49.3819 2.34546 49.3819C4.09448 49.3819 35.6199 49.3819 36.7598 49.3819C37.5517 49.3819 38.1938 48.7399 38.1938 47.9479C38.1938 47.156 37.5517 46.514 36.7598 46.514ZM9.51512 46.514H6.64726V37.2672L9.51512 35.8332V46.514ZM15.2508 46.514H12.383V33.513V22.6355L15.2508 19.7677V46.514ZM20.9866 46.514H18.1187C18.1187 46.1249 18.1187 12 18.1187 11.1641L19.1598 10.1229L20.9866 13.7765C20.9866 14.6846 20.9866 46.0905 20.9866 46.514ZM26.7223 36.3809V46.514H23.8544V27.2296L26.7223 28.6636V36.3809ZM32.458 46.514H29.5902V38.7011L32.458 40.135V46.514Z" fill="url(#paint0_linear_217_357)"/>
<defs>
<linearGradient id="paint0_linear_217_357" x1="19.5526" y1="0.437012" x2="19.5526" y2="49.3819" gradientUnits="userSpaceOnUse">
<stop stop-color="white"/>
<stop offset="1" stop-color="#ABBBF7"/>
</linearGradient>
</defs>
</svg>
