<svg width="52" height="51" viewBox="0 0 52 51" fill="none" xmlns="http://www.w3.org/2000/svg">
<g id="statue-of-liberty 1" clip-path="url(#clip0_48_251)">
<g id="Group">
<g id="Group_2">
<g id="Group_3">
<path id="Vector" d="M36.7733 50.937H15.359C14.9492 50.937 14.6169 50.6047 14.6169 50.1949C14.6169 49.785 14.9492 49.4528 15.359 49.4528H19.4762C17.3547 37.9394 18.0341 31.3107 18.1935 30.0878L17.7966 29.0141C17.4663 28.1203 17.6921 27.114 18.3413 26.4431L16.4461 19.5641C16.3801 19.3246 16.4383 19.068 16.6012 18.8804L17.6681 17.6518L15.5131 10.6891C15.127 10.5537 14.7851 10.3136 14.5217 9.98735C14.1481 9.52468 13.9771 8.94427 14.0401 8.35287L14.1103 7.693C13.7881 7.6562 13.5226 7.4119 13.4644 7.08607L12.9346 4.11771C12.896 3.90152 12.9551 3.67929 13.0961 3.51088C13.2371 3.34248 13.4455 3.24521 13.6651 3.24521H14.2887C14.2311 3.01823 14.1932 2.768 14.1932 2.50312C14.1932 1.27551 15.1918 0.276855 16.4194 0.276855H19.3878C19.6231 0.276855 19.8445 0.388466 19.9844 0.577748C20.1243 0.766932 20.1662 1.01133 20.0973 1.23633C19.8618 2.00523 19.4547 2.69567 19.0532 3.24521H19.1738C19.3935 3.24521 19.6019 3.34258 19.7429 3.51118C19.8839 3.67968 19.9429 3.90201 19.9042 4.11831L19.3721 7.08667C19.3241 7.35441 19.136 7.56705 18.8915 7.65451L20.3605 11.6482C20.3641 11.6482 20.3676 11.6481 20.3713 11.6481H22.076C22.1688 11.2477 22.3353 10.8705 22.5621 10.5282L20.9482 8.91419C20.6583 8.62438 20.6583 8.15449 20.9482 7.86477C21.238 7.57496 21.7079 7.57486 21.9976 7.86477L23.6066 9.47382C24.1344 9.1096 24.763 8.85403 25.449 8.74588V6.70593C25.449 6.29609 25.7812 5.96384 26.1911 5.96384C26.6009 5.96384 26.9332 6.29609 26.9332 6.70593V8.74598C27.6191 8.85423 28.2477 9.1097 28.7755 9.47392L30.3846 7.86487C30.6744 7.57506 31.1443 7.57506 31.434 7.86487C31.7238 8.15468 31.7238 8.62457 31.434 8.91429L29.82 10.5283C30.0469 10.8706 30.2133 11.2477 30.3061 11.6482H32.0108C32.4207 11.6482 32.7529 11.9805 32.7529 12.3903C32.7529 12.8002 32.4207 13.1324 32.0108 13.1324H30.2633C30.1408 13.531 29.9569 13.8996 29.8358 14.1209C29.8272 14.4976 29.7947 14.8634 29.7403 15.2152C31.3634 17.6216 30.9264 19.2677 30.0313 20.3292C30.7022 21.0007 31.1813 21.8927 31.4342 22.9533L31.8403 24.6564L33.6634 22.2167C33.7814 22.0589 33.9573 21.9545 34.1522 21.9264C34.3475 21.8986 34.5455 21.949 34.703 22.0673L38.6608 25.0356C38.9884 25.2812 39.055 25.7457 38.8101 26.0736L33.7828 32.8008L34.9796 37.8182C35.0655 38.1782 34.8729 38.5464 34.5283 38.6814L32.2338 39.5801C32.0929 40.9036 31.611 45.1697 30.8289 49.453H36.7728C37.1826 49.453 37.5149 49.7852 37.5149 50.1951C37.5149 50.6049 37.1831 50.937 36.7733 50.937ZM20.9858 49.4528H29.3203C30.0055 45.7604 30.4658 42.0309 30.6739 40.191L28.8054 40.9228V42.988C28.8054 43.2933 28.6183 43.5676 28.3339 43.6789L25.9359 44.6181C25.5545 44.7676 25.1237 44.5793 24.9743 44.1977C24.8248 43.8161 25.0131 43.3855 25.3948 43.2361L27.3213 42.4817V40.4165C27.3213 40.1112 27.5084 39.8369 27.7928 39.7256L33.3867 37.5347L31.8094 30.922C31.7143 30.5234 31.9604 30.123 32.359 30.0279C32.7577 29.9327 33.1579 30.1789 33.2531 30.5776L33.335 30.9212L37.1782 25.7784L34.4077 23.7006L32.289 26.5358L32.5607 27.6747C32.6558 28.0734 32.4097 28.4737 32.011 28.5688C31.6126 28.6638 31.2121 28.4178 31.117 28.0191L29.9908 23.2977C29.9547 23.1465 29.9086 22.9835 29.8499 22.8147L28.8055 23.5927V37.2215C28.8055 37.6314 28.4732 37.9636 28.0634 37.9636C27.6536 37.9636 27.3213 37.6314 27.3213 37.2215V24.6982L25.7637 25.8586L22.7209 40.3799C22.6368 40.7811 22.2435 41.0382 21.8423 40.954C21.4412 40.87 21.1841 40.4767 21.2682 40.0755L23.9667 27.1972L23.1203 27.8277C22.7916 28.0726 22.3268 28.0046 22.0819 27.6759C21.837 27.3472 21.905 26.8823 22.2336 26.6375L29.1098 21.5152C28.9398 21.3234 28.7413 21.1452 28.5095 20.9911C28.4389 20.9442 28.3651 20.895 28.2888 20.8441L21.2945 26.0545C21.2923 26.0562 21.29 26.0578 21.2877 26.0595L19.5221 27.3748C19.1761 27.6325 19.039 28.095 19.1885 28.4996L19.3063 28.8181L19.9042 28.3727C20.2329 28.1279 20.6978 28.1959 20.9426 28.5245C21.1875 28.8532 21.1195 29.3181 20.7908 29.5629L19.6503 30.4125C19.5097 31.6466 19.0751 36.763 20.2885 45.2358L22.7825 44.259C23.164 44.1095 23.5946 44.2977 23.744 44.6795C23.8936 45.0611 23.7053 45.4916 23.3236 45.641L20.5161 46.7406C20.6551 47.6126 20.811 48.5169 20.9858 49.4528ZM17.9826 19.5533L19.6096 25.4589L20.1847 25.0305L21.5617 18.9747C21.6526 18.5751 22.0501 18.3252 22.4499 18.4157C22.8496 18.5065 23.0999 18.9043 23.009 19.3039L22.0172 23.6655L26.9805 19.9683C26.6298 19.7328 26.3288 19.5302 26.1624 19.4182C24.1756 19.3962 22.6139 17.0931 22.5462 14.121C22.4251 13.8998 22.2413 13.5312 22.1188 13.1325H20.9064L21.544 14.866C21.6374 15.1199 21.5853 15.4045 21.4079 15.6088L17.9826 19.5533ZM27.9003 18.7981C28.2032 19.0014 28.5361 19.2246 28.8474 19.4327C29.2826 18.9518 29.5556 18.2746 29.1374 17.1999C28.8136 17.866 28.3914 18.4136 27.9003 18.7981ZM24.0543 14.4947C24.21 16.2212 25.0441 17.934 26.1911 17.934C27.338 17.934 28.1721 16.2212 28.3278 14.4946C27.7476 14.3135 26.8922 13.9449 26.1911 13.2272C25.49 13.945 24.6347 14.3136 24.0543 14.4947ZM15.6024 7.69785L15.5159 8.51019C15.4725 8.91706 15.7683 9.28335 16.1752 9.32669C16.47 9.35806 16.7178 9.56188 16.8055 9.84516L18.8135 16.3327L19.9998 14.9666L17.326 7.69785H15.6024ZM26.1912 10.1723C24.6937 10.1723 23.4755 11.1674 23.4755 12.3903C23.4755 12.5458 23.5644 12.806 23.6756 13.0573C24.218 12.8785 25.0744 12.4765 25.5435 11.6382C25.6747 11.4037 25.9224 11.2585 26.1911 11.2585C26.4597 11.2585 26.7075 11.4038 26.8387 11.6382C27.3067 12.4745 28.1632 12.8771 28.7061 13.0566C28.8175 12.8045 28.9066 12.5442 28.9066 12.3903C28.9067 11.1673 27.6885 10.1723 26.1912 10.1723ZM14.8163 6.21367H18.0207L18.2867 4.72949H14.5513L14.8163 6.21367ZM15.8579 3.24531H17.1096C17.3765 2.975 17.8654 2.43594 18.2529 1.76113H16.4194C16.0102 1.76113 15.6773 2.09399 15.6773 2.50322C15.6773 2.7865 15.7687 3.05277 15.8579 3.24531Z" fill="white"/>
</g>
</g>
</g>
</g>
<defs>
<clipPath id="clip0_48_251">
<rect width="50.66" height="50.66" fill="white" transform="translate(0.610535 0.276855)"/>
</clipPath>
</defs>
</svg>
