<svg width="37" height="37" viewBox="0 0 37 37" fill="none" xmlns="http://www.w3.org/2000/svg">
<g id="ic:outline-whatsapp">
<path id="Vector" d="M28.8511 8.31332C27.4757 6.92448 25.8377 5.82327 24.0324 5.07387C22.2271 4.32446 20.2908 3.94185 18.3361 3.94832C10.1461 3.94832 3.47114 10.6233 3.47114 18.8133C3.47114 21.4383 4.16114 23.9883 5.45114 26.2383L3.35114 33.9483L11.2261 31.8783C13.4011 33.0633 15.8461 33.6933 18.3361 33.6933C26.5261 33.6933 33.2011 27.0183 33.2011 18.8283C33.2011 14.8533 31.6561 11.1183 28.8511 8.31332ZM18.3361 31.1733C16.1161 31.1733 13.9411 30.5733 12.0361 29.4483L11.5861 29.1783L6.90614 30.4083L8.15114 25.8483L7.85114 25.3833C6.61746 23.4139 5.96252 21.1372 5.96114 18.8133C5.96114 12.0033 11.5111 6.45332 18.3211 6.45332C21.6211 6.45332 24.7261 7.74332 27.0511 10.0833C28.2026 11.2291 29.115 12.5921 29.7356 14.0933C30.3561 15.5945 30.6724 17.204 30.6661 18.8283C30.6961 25.6383 25.1461 31.1733 18.3361 31.1733ZM25.1161 21.9333C24.7411 21.7533 22.9111 20.8533 22.5811 20.7183C22.2361 20.5983 21.9961 20.5383 21.7411 20.8983C21.4861 21.2733 20.7811 22.1133 20.5711 22.3533C20.3611 22.6083 20.1361 22.6383 19.7611 22.4433C19.3861 22.2633 18.1861 21.8583 16.7761 20.5983C15.6661 19.6083 14.9311 18.3933 14.7061 18.0183C14.4961 17.6433 14.6761 17.4483 14.8711 17.2533C15.0361 17.0883 15.2461 16.8183 15.4261 16.6083C15.6061 16.3983 15.6811 16.2333 15.8011 15.9933C15.9211 15.7383 15.8611 15.5283 15.7711 15.3483C15.6811 15.1683 14.9311 13.3383 14.6311 12.5883C14.3311 11.8683 14.0161 11.9583 13.7911 11.9433H13.0711C12.8161 11.9433 12.4261 12.0333 12.0811 12.4083C11.7511 12.7833 10.7911 13.6833 10.7911 15.5133C10.7911 17.3433 12.1261 19.1133 12.3061 19.3533C12.4861 19.6083 14.9311 23.3583 18.6511 24.9633C19.5361 25.3533 20.2261 25.5783 20.7661 25.7433C21.6511 26.0283 22.4611 25.9833 23.1061 25.8933C23.8261 25.7883 25.3111 24.9933 25.6111 24.1233C25.9261 23.2533 25.9261 22.5183 25.8211 22.3533C25.7161 22.1883 25.4911 22.1133 25.1161 21.9333Z" fill="white"/>
</g>
</svg>
