<svg width="40" height="41" viewBox="0 0 40 41" fill="none" xmlns="http://www.w3.org/2000/svg">
<g id="ic:outline-whatsapp">
<path id="Vector" d="M31.6799 8.52343C30.1899 6.98027 28.4153 5.75671 26.4596 4.92403C24.5039 4.09136 22.4062 3.66623 20.2887 3.67343C11.4162 3.67343 4.18493 11.0901 4.18493 20.1901C4.18493 23.1068 4.93243 25.9401 6.32993 28.4401L4.05493 37.0068L12.5862 34.7068C14.9424 36.0234 17.5912 36.7234 20.2887 36.7234C29.1612 36.7234 36.3924 29.3068 36.3924 20.2068C36.3924 15.7901 34.7187 11.6401 31.6799 8.52343ZM20.2887 33.9234C17.8837 33.9234 15.5274 33.2568 13.4637 32.0068L12.9762 31.7068L7.90618 33.0734L9.25493 28.0068L8.92993 27.4901C7.59345 25.3019 6.88393 22.7722 6.88243 20.1901C6.88243 12.6234 12.8949 6.45676 20.2724 6.45676C23.8474 6.45676 27.2112 7.8901 29.7299 10.4901C30.9773 11.7632 31.9658 13.2777 32.6381 14.9456C33.3103 16.6136 33.653 18.4019 33.6462 20.2068C33.6787 27.7734 27.6662 33.9234 20.2887 33.9234ZM27.6337 23.6568C27.2274 23.4568 25.2449 22.4568 24.8874 22.3068C24.5137 22.1734 24.2537 22.1068 23.9774 22.5068C23.7012 22.9234 22.9374 23.8568 22.7099 24.1234C22.4824 24.4068 22.2387 24.4401 21.8324 24.2234C21.4262 24.0234 20.1262 23.5734 18.5987 22.1734C17.3962 21.0734 16.5999 19.7234 16.3562 19.3068C16.1287 18.8901 16.3237 18.6734 16.5349 18.4568C16.7137 18.2734 16.9412 17.9734 17.1362 17.7401C17.3312 17.5068 17.4124 17.3234 17.5424 17.0568C17.6724 16.7734 17.6074 16.5401 17.5099 16.3401C17.4124 16.1401 16.5999 14.1068 16.2749 13.2734C15.9499 12.4734 15.6087 12.5734 15.3649 12.5568H14.5849C14.3087 12.5568 13.8862 12.6568 13.5124 13.0734C13.1549 13.4901 12.1149 14.4901 12.1149 16.5234C12.1149 18.5568 13.5612 20.5234 13.7562 20.7901C13.9512 21.0734 16.5999 25.2401 20.6299 27.0234C21.5887 27.4568 22.3362 27.7068 22.9212 27.8901C23.8799 28.2068 24.7574 28.1568 25.4562 28.0568C26.2362 27.9401 27.8449 27.0568 28.1699 26.0901C28.5112 25.1234 28.5112 24.3068 28.3974 24.1234C28.2837 23.9401 28.0399 23.8568 27.6337 23.6568Z" fill="#2A3F85"/>
</g>
</svg>
